# Blender v2.82 (sub 7) OBJ File: 'simple-grass.blend'
# www.blender.org
o Grass_3_Plane.006
v 0.325203 0.636957 -0.726046
v 0.237009 0.794240 -0.490741
v 0.164040 0.993344 -0.217854
v 0.188052 1.268902 -0.042398
v 0.182700 1.295292 -0.017256
v 0.166533 1.320261 0.035987
v 0.187018 1.331396 0.055922
v 0.276514 1.333833 0.220418
v 0.275394 1.327341 0.226167
v 0.142650 0.911717 0.465049
v 0.027859 0.865559 0.460518
v -0.065529 0.882022 0.356243
v -0.105654 0.864354 0.322863
v -0.152679 0.806485 0.348564
v -0.218933 0.592542 0.730772
v -0.282023 -0.045564 0.358990
v -0.247213 -0.045564 0.321506
v -0.217678 -0.045564 0.289700
v -0.191306 -0.045564 0.261303
v -0.161781 -0.045564 0.229509
v -0.116496 -0.045564 0.180744
v -0.075273 -0.045564 0.136354
v -0.035189 -0.045564 0.093190
v 0.005950 -0.045564 0.048890
v 0.044979 -0.045564 0.006862
v 0.086530 -0.045564 -0.037505
v 0.113431 -0.045564 -0.055361
v 0.144338 -0.045564 -0.075494
v 0.172728 -0.045564 -0.106523
v 0.213992 -0.045564 -0.158267
v 0.258127 -0.045564 -0.215347
v 0.289416 -0.045564 -0.252932
v 0.329516 -0.045564 -0.296656
v -0.279983 0.549293 0.779438
v 0.375561 0.836004 -0.331836
v 0.299765 1.011609 -0.123907
v 0.337937 1.209717 -0.030244
v 0.371122 1.349726 0.047167
v 0.371805 1.384988 0.074879
v 0.351273 1.415815 0.126418
v 0.321698 1.408561 0.121738
v 0.255807 1.264461 0.272668
v 0.252285 1.255350 0.278582
v 0.032581 0.875183 0.427969
v -0.016768 0.909818 0.388253
v -0.203361 0.866032 0.143528
v -0.304875 0.760427 0.068193
v -0.347132 0.714624 0.004882
v -0.591885 0.530324 -0.077257
v -0.378939 -0.045564 0.246379
v -0.333777 -0.045564 0.222354
v -0.295458 -0.045564 0.201969
v -0.261244 -0.045564 0.183768
v -0.222938 -0.045564 0.163391
v -0.164185 -0.045564 0.132136
v -0.110703 -0.045564 0.103685
v -0.058698 -0.045564 0.076020
v -0.005325 -0.045564 0.047627
v 0.045312 -0.045564 0.020690
v 0.099363 -0.045564 -0.007354
v 0.132945 -0.045564 0.002418
v 0.161435 -0.045564 0.032240
v 0.189225 -0.045564 0.027430
v 0.238442 -0.045564 -0.010599
v 0.297947 -0.045564 -0.066306
v 0.295882 -0.045564 -0.039092
v 0.315513 -0.045564 -0.028531
v -0.643647 0.481461 -0.021681
v -0.026994 0.990283 -0.346109
v -0.104180 0.990505 -0.228728
v -0.150219 0.956760 -0.187102
v -0.208773 0.911985 -0.126416
v -0.228924 0.897110 -0.097460
v -0.216118 0.900140 -0.065632
v -0.082379 0.997043 -0.057896
v 0.256141 1.378053 0.144202
v 0.259622 1.378489 0.148166
v 0.283869 1.060512 0.380383
v 0.317737 1.109425 0.364061
v 0.128057 0.871336 0.504778
v 0.016753 0.807286 0.496919
v -0.037890 0.768336 0.576510
v -0.049258 0.774097 0.619584
v 0.037117 -0.045564 0.345264
v 0.063814 -0.045564 0.269584
v 0.057418 -0.045564 0.245547
v 0.036638 -0.045564 0.244927
v 0.009963 -0.045564 0.248949
v -0.005338 -0.045564 0.219693
v 0.004676 -0.045564 0.159949
v 0.014414 -0.045564 0.101854
v 0.024408 -0.045564 0.042229
v 0.033889 -0.045564 -0.014337
v 0.044119 -0.045564 -0.075367
v 0.054644 -0.045564 -0.138159
v 0.066873 -0.045564 -0.211121
v 0.073606 -0.045564 -0.251288
v 0.081005 -0.045564 -0.295434
v 0.088717 -0.045564 -0.341440
v 0.095902 -0.045564 -0.384311
v 0.105307 -0.045564 -0.440421
v -0.055128 0.779388 0.634783
v -0.383999 0.860466 -0.274415
v -0.390092 0.826654 -0.251682
v -0.355000 0.830806 -0.252020
v -0.287357 0.850250 -0.252295
v -0.267267 0.851007 -0.242501
v -0.287918 0.810550 -0.182436
v -0.238879 0.850963 -0.086792
v 0.187455 1.334559 0.103317
v 0.193693 1.339914 0.105350
v 0.351270 1.242806 0.250460
v 0.369191 1.159873 0.302167
v 0.375309 1.119616 0.310937
v 0.389501 1.042111 0.344719
v 0.438606 0.964613 0.497875
v 0.473826 0.940008 0.653518
v 0.376887 -0.005187 0.238269
v 0.323764 -0.012486 0.224215
v 0.245537 -0.025456 0.243901
v 0.174960 -0.037186 0.262174
v 0.121467 -0.045101 0.258296
v 0.096543 -0.045564 0.197883
v 0.075917 -0.045564 0.140924
v 0.055860 -0.045564 0.085538
v 0.035276 -0.045564 0.028695
v 0.015747 -0.045564 -0.025234
v -0.005323 -0.045564 -0.083418
v -0.027001 -0.045564 -0.143281
v -0.052190 -0.045564 -0.212841
v -0.066057 -0.045564 -0.251135
v -0.081298 -0.045564 -0.293222
v -0.097181 -0.045564 -0.337083
v -0.111982 -0.045564 -0.377955
v -0.131353 -0.045564 -0.431448
v 0.439988 0.924522 0.691640
vt 0.572653 1.000000
vt 0.604620 0.000000
vt 0.573468 1.000000
vt 0.982921 0.000000
vt 0.951708 1.000000
vt 0.924775 0.000000
vt 0.894579 1.000000
vt 0.880348 0.000000
vt 0.853482 1.000000
vt 0.832672 0.000000
vt 0.794860 1.000000
vt 0.786924 0.000000
vt 0.767930 1.000000
vt 0.745300 0.000000
vt 0.715648 1.000000
vt 0.669690 0.000000
vt 0.655445 1.000000
vt 0.541375 0.000000
vt 0.514442 1.000000
vt 0.482756 0.000000
vt 0.458992 1.000000
vt 0.420969 0.000000
vt 0.360765 0.000000
vt 0.335416 1.000000
vt 0.298853 0.000000
vt 0.276798 1.000000
vt 0.230837 0.000000
vt 0.213426 1.000000
vt 0.186493 0.000000
vt 0.154807 1.000000
vt 0.146885 0.000000
vt 0.102525 0.000000
vt 0.109453 0.989050
vt 0.050243 0.000000
vt 0.572653 1.000000
vt 0.604620 0.000000
vt 0.573468 1.000000
vt 0.982921 0.000000
vt 0.951708 1.000000
vt 0.924775 0.000000
vt 0.894579 1.000000
vt 0.880348 0.000000
vt 0.853482 1.000000
vt 0.832672 0.000000
vt 0.794860 1.000000
vt 0.786924 0.000000
vt 0.767930 1.000000
vt 0.745300 0.000000
vt 0.715648 1.000000
vt 0.669690 0.000000
vt 0.655445 1.000000
vt 0.541375 0.000000
vt 0.514442 1.000000
vt 0.482756 0.000000
vt 0.458992 1.000000
vt 0.420969 0.000000
vt 0.360765 0.000000
vt 0.335416 1.000000
vt 0.298853 0.000000
vt 0.276798 1.000000
vt 0.230837 0.000000
vt 0.213426 1.000000
vt 0.186493 0.000000
vt 0.154807 1.000000
vt 0.146885 0.000000
vt 0.102525 0.000000
vt 0.109453 0.989050
vt 0.050243 0.000000
vt 0.541375 0.000000
vt 0.573468 1.000000
vt 0.572653 1.000000
vt 0.982921 0.000000
vt 0.951708 1.000000
vt 0.924775 0.000000
vt 0.894579 1.000000
vt 0.880348 0.000000
vt 0.853482 1.000000
vt 0.832672 0.000000
vt 0.794860 1.000000
vt 0.786924 0.000000
vt 0.767930 1.000000
vt 0.745300 0.000000
vt 0.715648 1.000000
vt 0.669690 0.000000
vt 0.655445 1.000000
vt 0.604620 0.000000
vt 0.514442 1.000000
vt 0.482756 0.000000
vt 0.458992 1.000000
vt 0.420969 0.000000
vt 0.360765 0.000000
vt 0.335416 1.000000
vt 0.298853 0.000000
vt 0.276798 1.000000
vt 0.230837 0.000000
vt 0.213426 1.000000
vt 0.186493 0.000000
vt 0.154807 1.000000
vt 0.146885 0.000000
vt 0.102525 0.000000
vt 0.109453 0.989050
vt 0.050243 0.000000
vt 0.541375 0.000000
vt 0.573468 1.000000
vt 0.572653 1.000000
vt 0.982921 0.000000
vt 0.951708 1.000000
vt 0.924775 0.000000
vt 0.894579 1.000000
vt 0.880348 0.000000
vt 0.853482 1.000000
vt 0.832672 0.000000
vt 0.794860 1.000000
vt 0.786924 0.000000
vt 0.767930 1.000000
vt 0.745300 0.000000
vt 0.715648 1.000000
vt 0.669690 0.000000
vt 0.655445 1.000000
vt 0.604620 0.000000
vt 0.514442 1.000000
vt 0.482756 0.000000
vt 0.458992 1.000000
vt 0.420969 0.000000
vt 0.360765 0.000000
vt 0.335416 1.000000
vt 0.298853 0.000000
vt 0.276798 1.000000
vt 0.230837 0.000000
vt 0.213426 1.000000
vt 0.186493 0.000000
vt 0.154807 1.000000
vt 0.146885 0.000000
vt 0.102525 0.000000
vt 0.109453 0.989050
vt 0.050243 0.000000
vn 0.9893 -0.1423 0.0321
vn 0.6771 0.3949 0.6210
vn 0.7491 0.2233 0.6236
vn 0.7890 0.0729 0.6101
vn 0.7812 -0.0395 0.6230
vn 0.7368 -0.0504 0.6742
vn 0.5442 -0.0770 0.8354
vn 0.5505 -0.0964 0.8293
vn 0.6802 -0.3718 0.6317
vn 0.6969 -0.3091 0.6472
vn 0.7225 -0.1666 0.6710
vn 0.7280 -0.1143 0.6760
vn 0.7289 -0.1024 0.6769
vn 0.6634 -0.4246 0.6161
vn 0.6597 -0.4353 0.6126
vn 0.9406 -0.1746 0.2912
vn -0.4492 0.3179 0.8350
vn -0.9971 -0.0024 -0.0757
vn 0.6828 -0.0427 0.7294
vn 0.6089 -0.0905 0.7881
vn 0.1703 -0.0544 0.9839
vn -0.7222 0.0494 0.6899
vn -0.2791 -0.0425 0.9593
vn 0.4384 -0.3585 0.8242
vn 0.4487 -0.2954 0.8435
vn 0.4696 0.0091 0.8828
vn 0.4643 0.1503 0.8728
vn 0.4544 0.2524 0.8543
vn 0.3902 0.5565 0.7335
vn 0.3875 0.5651 0.7284
vn 0.7532 -0.0445 -0.6563
vn 0.9802 0.1102 0.1643
vn 0.9730 0.1634 0.1631
vn 0.9653 0.2052 0.1618
vn 0.9523 0.2600 0.1596
vn 0.9473 0.2781 0.1588
vn 0.9522 0.2604 0.1596
vn 0.9796 0.1161 0.1642
vn 0.9492 -0.2713 0.1591
vn 0.9455 -0.2843 0.1585
vn 0.9680 -0.1913 0.1623
vn 0.8790 0.1267 -0.4597
vn -0.1389 0.3627 -0.9215
vn 0.0271 0.4179 -0.9081
vn 0.9430 -0.0113 0.3327
vn 0.2652 0.0567 -0.9625
vn 0.8952 0.3058 -0.3242
vn 0.8877 0.3296 -0.3215
vn 0.8982 0.2958 -0.3252
vn 0.9160 0.2258 -0.3317
vn 0.9194 0.2095 -0.3329
vn 0.9075 0.2616 -0.3286
vn 0.9135 0.2367 -0.3308
vn 0.9266 -0.1695 -0.3356
vn 0.9249 -0.1802 -0.3349
vn 0.9234 -0.1885 -0.3344
vn 0.9074 -0.1941 -0.3729
vn 0.0382 0.2193 -0.9749
vn -0.2926 0.4313 -0.8534
vn 0.1773 0.4216 -0.8893
vn 0.7110 -0.2257 0.6659
vn 0.4469 -0.2418 0.8613
vn 0.9719 -0.1699 0.1629
vn 0.9368 -0.0850 -0.3393
s off
f 9/1/1 26/2/1 8/3/1
f 33/4/2 1/5/2 32/6/2
f 32/6/3 2/7/3 31/8/3
f 31/8/4 3/9/4 30/10/4
f 30/10/5 4/11/5 29/12/5
f 29/12/6 5/13/6 28/14/6
f 28/14/7 6/15/7 27/16/7
f 27/16/8 7/17/8 26/2/8
f 25/18/9 10/19/9 24/20/9
f 24/20/10 11/21/10 23/22/10
f 22/23/11 12/24/11 21/25/11
f 21/25/12 13/26/12 20/27/12
f 20/27/13 14/28/13 19/29/13
f 19/29/14 15/30/14 18/31/14
f 17/32/15 34/33/15 16/34/15
f 43/35/16 60/36/16 42/37/16
f 67/38/17 35/39/17 66/40/17
f 66/40/18 36/41/18 65/42/18
f 65/42/19 37/43/19 64/44/19
f 64/44/20 38/45/20 63/46/20
f 63/46/21 39/47/21 62/48/21
f 62/48/22 40/49/22 61/50/22
f 61/50/23 41/51/23 60/36/23
f 59/52/24 44/53/24 58/54/24
f 58/54/25 45/55/25 57/56/25
f 56/57/26 46/58/26 55/59/26
f 55/59/27 47/60/27 54/61/27
f 54/61/28 48/62/28 53/63/28
f 53/63/29 49/64/29 52/65/29
f 51/66/30 68/67/30 50/68/30
f 93/69/31 76/70/31 77/71/31
f 101/72/32 69/73/32 100/74/32
f 100/74/33 70/75/33 99/76/33
f 99/76/34 71/77/34 98/78/34
f 98/78/35 72/79/35 97/80/35
f 97/80/36 73/81/36 96/82/36
f 96/82/37 74/83/37 95/84/37
f 95/84/38 75/85/38 94/86/38
f 93/69/39 78/87/39 92/88/39
f 92/88/40 79/89/40 91/90/40
f 90/91/41 80/92/41 89/93/41
f 89/93/42 81/94/42 88/95/42
f 88/95/43 82/96/43 87/97/43
f 87/97/44 83/98/44 86/99/44
f 85/100/45 102/101/45 84/102/45
f 127/103/46 110/104/46 111/105/46
f 135/106/47 103/107/47 134/108/47
f 134/108/48 104/109/48 133/110/48
f 133/110/49 105/111/49 132/112/49
f 132/112/50 106/113/50 131/114/50
f 131/114/51 107/115/51 130/116/51
f 130/116/52 108/117/52 129/118/52
f 129/118/53 109/119/53 128/120/53
f 127/103/54 112/121/54 126/122/54
f 126/122/55 113/123/55 125/124/55
f 124/125/56 114/126/56 123/127/56
f 123/127/57 115/128/57 122/129/57
f 122/129/58 116/130/58 121/131/58
f 121/131/59 117/132/59 120/133/59
f 119/134/60 136/135/60 118/136/60
f 9/1/61 25/18/61 26/2/61
f 43/35/62 59/52/62 60/36/62
f 93/69/63 94/86/63 76/70/63
f 127/103/64 128/120/64 110/104/64
