# Blender v2.82 (sub 7) OBJ File: 'simple-grass.blend'
# www.blender.org
o Grass_4_Plane.007
v 0.332930 1.194793 -0.897211
v 0.248150 1.163356 -0.711687
v 0.170636 1.048792 -0.416054
v 0.107098 0.996803 -0.288727
v 0.074072 1.040116 -0.165166
v -0.022216 1.141595 0.112905
v -0.128287 1.149328 0.112112
v -0.808065 1.031382 -0.001498
v -0.808615 1.030601 0.001557
v -0.534879 0.983963 0.196830
v -0.684122 0.990552 0.137205
v -0.719715 1.021659 0.071520
v -0.621748 1.031263 0.097063
v -0.409083 1.076541 0.181549
v -0.172997 1.135031 0.319518
v -0.288155 -0.047534 0.279511
v -0.253345 -0.047534 0.242027
v -0.223809 -0.047534 0.210222
v -0.197438 -0.047534 0.181824
v -0.167913 -0.047534 0.150031
v -0.122627 -0.047534 0.101265
v -0.081405 -0.047534 0.056876
v -0.041321 -0.047534 0.013712
v -0.000182 -0.047534 -0.030588
v 0.038847 -0.047534 -0.072617
v 0.080399 -0.047534 -0.116983
v 0.107299 -0.047534 -0.134840
v 0.138206 -0.047534 -0.154973
v 0.166596 -0.047534 -0.186002
v 0.207860 -0.047534 -0.237745
v 0.251995 -0.047534 -0.294825
v 0.283284 -0.047534 -0.332411
v 0.323384 -0.047534 -0.376135
v 0.229074 1.243765 0.537521
v 0.376347 1.085595 -0.459095
v 0.275292 0.967775 -0.162827
v 0.217428 0.976664 -0.019400
v 0.146303 1.081649 0.122571
v 0.025271 1.126334 0.146276
v -0.577199 1.042979 0.001280
v -0.635793 1.036899 -0.015380
v -0.807121 1.024479 0.023759
v -0.806498 1.023688 0.026249
v -0.685537 0.986884 0.128210
v -0.772665 1.017802 0.062447
v -0.077250 1.191095 0.217749
v -0.051844 1.115811 0.113809
v -0.138977 1.005240 -0.170384
v -0.250772 0.988879 0.055615
v -0.385071 -0.047534 0.166900
v -0.339909 -0.047534 0.142875
v -0.301590 -0.047534 0.122490
v -0.267376 -0.047534 0.104289
v -0.229070 -0.047534 0.083912
v -0.170316 -0.047534 0.052657
v -0.116835 -0.047534 0.024206
v -0.064830 -0.047534 -0.003459
v -0.011456 -0.047534 -0.031852
v 0.039180 -0.047534 -0.058789
v 0.093231 -0.047534 -0.086832
v 0.126813 -0.047534 -0.077061
v 0.155303 -0.047534 -0.047239
v 0.183093 -0.047534 -0.052049
v 0.232310 -0.047534 -0.090078
v 0.291815 -0.047534 -0.145785
v 0.289750 -0.047534 -0.118571
v 0.309381 -0.047534 -0.108010
v -0.147371 1.048741 0.234030
v -0.021924 1.016330 -0.522190
v -0.040097 1.025757 -0.587875
v -0.045384 1.029603 -0.616104
v -0.050643 1.029188 -0.640125
v -0.052635 1.024562 -0.637179
v -0.040689 1.001748 -0.615650
v 0.017366 0.970226 -0.559783
v -0.733453 1.042465 -0.033088
v -0.743428 1.041372 -0.032914
v -0.275091 1.060085 0.278801
v -0.301484 1.063407 0.259140
v -0.454034 1.012303 0.243897
v -0.609756 0.983058 0.166230
v -0.650918 0.975322 0.124291
v -0.583902 0.967767 0.148724
v 0.030985 -0.047534 0.265785
v 0.057682 -0.047534 0.190106
v 0.051286 -0.047534 0.166069
v 0.030507 -0.047534 0.165448
v 0.003831 -0.047534 0.169471
v -0.011470 -0.047534 0.140215
v -0.001456 -0.047534 0.080470
v 0.008282 -0.047534 0.022375
v 0.018276 -0.047534 -0.037249
v 0.027757 -0.047534 -0.093816
v 0.037987 -0.047534 -0.154846
v 0.048512 -0.047534 -0.217638
v 0.060741 -0.047534 -0.290600
v 0.067474 -0.047534 -0.330766
v 0.074873 -0.047534 -0.374912
v 0.082585 -0.047534 -0.420919
v 0.089771 -0.047534 -0.463790
v 0.099175 -0.047534 -0.519900
v -0.340349 1.034179 0.278615
v -0.277086 1.007275 -0.454518
v -0.253159 1.008113 -0.476865
v -0.221426 1.001556 -0.511580
v -0.168759 0.988845 -0.560201
v -0.146090 0.985073 -0.579147
v -0.113508 0.990101 -0.616326
v -0.050381 0.983608 -0.630187
v -0.520752 1.068153 0.000648
v -0.538927 1.065792 -0.003511
v -0.523957 0.988205 0.109472
v -0.073256 1.147204 0.312903
v 0.132794 1.209300 0.391495
v 0.182091 1.155599 0.374789
v 0.135988 1.084773 0.366690
v 0.137255 1.090687 0.367894
v 0.370755 -0.007156 0.158790
v 0.317632 -0.014455 0.144736
v 0.239405 -0.027425 0.164422
v 0.168829 -0.039155 0.182695
v 0.115335 -0.047071 0.178818
v 0.090411 -0.047534 0.118404
v 0.069785 -0.047534 0.061446
v 0.049728 -0.047534 0.006060
v 0.029144 -0.047534 -0.050784
v 0.009615 -0.047534 -0.104712
v -0.011455 -0.047534 -0.162897
v -0.033133 -0.047534 -0.222760
v -0.058322 -0.047534 -0.292320
v -0.072189 -0.047534 -0.330613
v -0.087430 -0.047534 -0.372701
v -0.103313 -0.047534 -0.416561
v -0.118114 -0.047534 -0.457434
v -0.137485 -0.047534 -0.510927
v 0.120800 1.059788 0.360744
vt 0.541375 0.000000
vt 0.573468 1.000000
vt 0.572653 1.000000
vt 0.982921 0.000000
vt 0.951708 1.000000
vt 0.924775 0.000000
vt 0.894579 1.000000
vt 0.880348 0.000000
vt 0.853482 1.000000
vt 0.832672 0.000000
vt 0.794860 1.000000
vt 0.786924 0.000000
vt 0.767930 1.000000
vt 0.745300 0.000000
vt 0.715648 1.000000
vt 0.669690 0.000000
vt 0.655445 1.000000
vt 0.604620 0.000000
vt 0.514442 1.000000
vt 0.482756 0.000000
vt 0.458992 1.000000
vt 0.420969 0.000000
vt 0.360765 0.000000
vt 0.335416 1.000000
vt 0.298853 0.000000
vt 0.276798 1.000000
vt 0.230837 0.000000
vt 0.213426 1.000000
vt 0.186493 0.000000
vt 0.154807 1.000000
vt 0.146885 0.000000
vt 0.102525 0.000000
vt 0.109453 0.989050
vt 0.050243 0.000000
vt 0.541375 0.000000
vt 0.573468 1.000000
vt 0.572653 1.000000
vt 0.982921 0.000000
vt 0.951708 1.000000
vt 0.924775 0.000000
vt 0.894579 1.000000
vt 0.880348 0.000000
vt 0.853482 1.000000
vt 0.832672 0.000000
vt 0.794860 1.000000
vt 0.786924 0.000000
vt 0.767930 1.000000
vt 0.745300 0.000000
vt 0.715648 1.000000
vt 0.669690 0.000000
vt 0.655445 1.000000
vt 0.604620 0.000000
vt 0.514442 1.000000
vt 0.482756 0.000000
vt 0.458992 1.000000
vt 0.420969 0.000000
vt 0.360765 0.000000
vt 0.335416 1.000000
vt 0.298853 0.000000
vt 0.276798 1.000000
vt 0.230837 0.000000
vt 0.213426 1.000000
vt 0.186493 0.000000
vt 0.154807 1.000000
vt 0.146885 0.000000
vt 0.102525 0.000000
vt 0.109453 0.989050
vt 0.050243 0.000000
vt 0.541375 0.000000
vt 0.573468 1.000000
vt 0.572653 1.000000
vt 0.982921 0.000000
vt 0.951708 1.000000
vt 0.924775 0.000000
vt 0.894579 1.000000
vt 0.880348 0.000000
vt 0.853482 1.000000
vt 0.832672 0.000000
vt 0.794860 1.000000
vt 0.786924 0.000000
vt 0.767930 1.000000
vt 0.745300 0.000000
vt 0.715648 1.000000
vt 0.669690 0.000000
vt 0.655445 1.000000
vt 0.604620 0.000000
vt 0.514442 1.000000
vt 0.482756 0.000000
vt 0.458992 1.000000
vt 0.420969 0.000000
vt 0.360765 0.000000
vt 0.335416 1.000000
vt 0.298853 0.000000
vt 0.276798 1.000000
vt 0.230837 0.000000
vt 0.213426 1.000000
vt 0.186493 0.000000
vt 0.154807 1.000000
vt 0.146885 0.000000
vt 0.102525 0.000000
vt 0.109453 0.989050
vt 0.050243 0.000000
vt 0.572653 1.000000
vt 0.604620 0.000000
vt 0.573468 1.000000
vt 0.982921 0.000000
vt 0.951708 1.000000
vt 0.924775 0.000000
vt 0.894579 1.000000
vt 0.880348 0.000000
vt 0.853482 1.000000
vt 0.832672 0.000000
vt 0.794860 1.000000
vt 0.786924 0.000000
vt 0.767930 1.000000
vt 0.745300 0.000000
vt 0.715648 1.000000
vt 0.669690 0.000000
vt 0.655445 1.000000
vt 0.541375 0.000000
vt 0.514442 1.000000
vt 0.482756 0.000000
vt 0.458992 1.000000
vt 0.420969 0.000000
vt 0.360765 0.000000
vt 0.335416 1.000000
vt 0.298853 0.000000
vt 0.276798 1.000000
vt 0.230837 0.000000
vt 0.213426 1.000000
vt 0.186493 0.000000
vt 0.154807 1.000000
vt 0.146885 0.000000
vt 0.102525 0.000000
vt 0.109453 0.989050
vt 0.050243 0.000000
vn 0.7629 0.5800 0.2858
vn 0.7101 0.2677 0.6512
vn 0.7502 0.2174 0.6245
vn 0.7849 0.1254 0.6069
vn 0.7775 0.1053 0.6200
vn 0.7369 0.0498 0.6742
vn 0.5422 -0.1144 0.8324
vn 0.5519 -0.0629 0.8315
vn 0.7141 0.2240 0.6632
vn 0.6866 0.3493 0.6376
vn 0.6736 0.3936 0.6256
vn 0.6934 0.3233 0.6439
vn 0.7259 0.1368 0.6741
vn 0.7295 -0.0940 0.6775
vn 0.6733 -0.3946 0.6253
vn 0.7849 0.6196 0.0004
vn -0.4537 0.2881 0.8433
vn -0.9970 -0.0175 -0.0757
vn 0.6829 -0.0404 0.7294
vn 0.6082 -0.1019 0.7872
vn 0.1688 -0.1421 0.9754
vn -0.6425 -0.4589 0.6138
vn -0.2710 -0.2435 0.9313
vn 0.4631 0.1671 0.8704
vn 0.4548 0.2493 0.8550
vn 0.4643 -0.1512 0.8727
vn 0.4676 -0.0938 0.8790
vn 0.4628 0.1705 0.8699
vn 0.4694 0.0339 0.8823
vn 0.4640 -0.1540 0.8723
vn 0.0218 -0.0404 0.9989
vn 0.9800 0.1119 0.1643
vn 0.9769 0.1371 0.1637
vn 0.9757 0.1456 0.1635
vn 0.9745 0.1538 0.1633
vn 0.9742 0.1558 0.1633
vn 0.9758 0.1450 0.1636
vn 0.9826 0.0854 0.1647
vn 0.9644 0.2093 0.1616
vn 0.9591 0.2332 0.1608
vn 0.9171 0.3679 0.1537
vn 0.7842 0.4656 -0.4101
vn -0.1477 -0.1378 -0.9794
vn 0.0298 0.0016 -0.9996
vn 0.8982 0.3046 0.3169
vn -0.1892 -0.2264 0.9555
vn 0.9308 0.1412 -0.3371
vn 0.9342 0.1133 -0.3383
vn 0.9376 0.0748 -0.3395
vn 0.9402 0.0122 -0.3405
vn 0.9401 -0.0147 -0.3405
vn 0.9388 -0.0562 -0.3399
vn 0.9337 -0.1180 -0.3381
vn 0.8222 0.4851 -0.2977
vn 0.9247 0.1812 -0.3349
vn 0.9394 0.0422 -0.3402
vn 0.9243 0.0108 -0.3814
vn 0.0474 0.1627 -0.9855
vn -0.2709 0.1483 -0.9511
vn 0.2191 0.2308 -0.9480
vn 0.6455 0.4668 0.6045
vn 0.4417 0.2831 0.8513
vn 0.8157 0.5621 0.1367
vn 0.8429 0.4431 -0.3052
s off
f 25/1/1 8/2/1 9/3/1
f 33/4/2 1/5/2 32/6/2
f 32/6/3 2/7/3 31/8/3
f 31/8/4 3/9/4 30/10/4
f 30/10/5 4/11/5 29/12/5
f 29/12/6 5/13/6 28/14/6
f 28/14/7 6/15/7 27/16/7
f 27/16/8 7/17/8 26/18/8
f 25/1/9 10/19/9 24/20/9
f 24/20/10 11/21/10 23/22/10
f 22/23/11 12/24/11 21/25/11
f 21/25/12 13/26/12 20/27/12
f 20/27/13 14/28/13 19/29/13
f 19/29/14 15/30/14 18/31/14
f 17/32/15 34/33/15 16/34/15
f 59/35/16 42/36/16 43/37/16
f 67/38/17 35/39/17 66/40/17
f 66/40/18 36/41/18 65/42/18
f 65/42/19 37/43/19 64/44/19
f 64/44/20 38/45/20 63/46/20
f 63/46/21 39/47/21 62/48/21
f 62/48/22 40/49/22 61/50/22
f 61/50/23 41/51/23 60/52/23
f 59/35/24 44/53/24 58/54/24
f 58/54/25 45/55/25 57/56/25
f 56/57/26 46/58/26 55/59/26
f 55/59/27 47/60/27 54/61/27
f 54/61/28 48/62/28 53/63/28
f 53/63/29 49/64/29 52/65/29
f 51/66/30 68/67/30 50/68/30
f 93/69/31 76/70/31 77/71/31
f 101/72/32 69/73/32 100/74/32
f 100/74/33 70/75/33 99/76/33
f 99/76/34 71/77/34 98/78/34
f 98/78/35 72/79/35 97/80/35
f 97/80/36 73/81/36 96/82/36
f 96/82/37 74/83/37 95/84/37
f 95/84/38 75/85/38 94/86/38
f 93/69/39 78/87/39 92/88/39
f 92/88/40 79/89/40 91/90/40
f 90/91/41 80/92/41 89/93/41
f 89/93/42 81/94/42 88/95/42
f 88/95/43 82/96/43 87/97/43
f 87/97/44 83/98/44 86/99/44
f 85/100/45 102/101/45 84/102/45
f 111/103/46 128/104/46 110/105/46
f 135/106/47 103/107/47 134/108/47
f 134/108/48 104/109/48 133/110/48
f 133/110/49 105/111/49 132/112/49
f 132/112/50 106/113/50 131/114/50
f 131/114/51 107/115/51 130/116/51
f 130/116/52 108/117/52 129/118/52
f 129/118/53 109/119/53 128/104/53
f 127/120/54 112/121/54 126/122/54
f 126/122/55 113/123/55 125/124/55
f 124/125/56 114/126/56 123/127/56
f 123/127/57 115/128/57 122/129/57
f 122/129/58 116/130/58 121/131/58
f 121/131/59 117/132/59 120/133/59
f 119/134/60 136/135/60 118/136/60
f 25/1/61 26/18/61 8/2/61
f 59/35/62 60/52/62 42/36/62
f 93/69/63 94/86/63 76/70/63
f 111/103/64 127/120/64 128/104/64
