# Blender v2.82 (sub 7) OBJ File: 'edgy-pine-tree.blend'
# www.blender.org
mtllib edgy-pine-tree.mtl
o Cylinder.006_Cylinder.012
v 2.205567 9.063015 -0.374456
v 0.462931 12.603354 -0.261658
v 1.527712 9.260928 1.809695
v 0.334249 12.640924 0.152971
v -0.707301 9.347152 2.311002
v -0.090035 12.657292 0.248137
v -2.264457 9.235462 0.628158
v -0.385639 12.636089 -0.071326
v -1.586601 9.037548 -1.555993
v -0.256958 12.598518 -0.485956
v 0.648411 8.951324 -2.057300
v 0.167327 12.582150 -0.581122
v 1.128491 10.606464 -0.253118
v 0.786231 10.706393 0.849692
v -0.342260 10.749929 1.102809
v -1.128491 10.693535 0.253117
v -0.786231 10.593606 -0.849694
v 0.342259 10.550070 -1.102811
v 1.901808 9.145612 -0.312000
v 1.316501 9.316504 1.573947
v -0.613363 9.390955 2.006810
v -1.957919 9.294515 0.553727
v -1.372611 9.123623 -1.332219
v 0.557252 9.049171 -1.765083
v 1.453235 9.276582 1.133369
v 1.739462 9.199103 1.127403
v 1.661202 9.221952 1.379569
v 1.501475 9.549436 1.128880
v 0.132741 -0.128692 -0.951805
v 0.132741 1.871307 -0.597493
v 0.998766 -0.128693 -0.451805
v 0.691923 1.871307 -0.274649
v 0.998766 -0.128693 0.548195
v 0.691923 1.871307 0.371039
v 0.132741 -0.128692 1.048195
v 0.132741 1.871308 0.693883
v -0.733285 -0.128693 0.548195
v -0.426441 1.871308 0.371039
v -0.733285 -0.128693 -0.451804
v -0.426441 1.871307 -0.274649
v 0.562990 3.891321 -0.200210
v 0.132741 3.891322 -0.448615
v 0.562990 3.891321 0.296599
v 0.132741 3.891321 0.545004
v -0.297509 3.891321 0.296599
v -0.297509 3.891321 -0.200210
v 0.110822 2.857728 -4.036230
v 0.129587 5.437012 -1.478472
v 3.723687 2.982246 -1.976294
v 1.380942 5.480140 -0.764991
v 3.742929 3.251919 2.175639
v 1.387607 5.573544 0.673076
v 0.149307 3.397075 4.267634
v 0.142917 5.623821 1.397661
v -3.463557 3.272557 2.207697
v -1.108438 5.580693 0.684179
v -3.482800 3.002885 -1.944235
v -1.115102 5.487288 -0.753887
v 0.121495 4.008952 -2.378232
v 2.232886 4.081721 -1.174386
v 2.244132 4.239321 1.252042
v 0.143986 4.324151 2.474623
v -1.967406 4.251382 1.270777
v -1.978651 4.093782 -1.155651
v 0.115049 3.029696 -3.124322
v 2.934401 3.126864 -1.516819
v 2.949417 3.337308 1.723204
v 0.145081 3.450582 3.355724
v -2.674271 3.353413 1.748221
v -2.689287 3.142969 -1.491801
v 3.731080 3.085866 -0.380944
v 3.733070 3.113742 0.048235
v 2.941051 3.220058 -0.081988
v 3.090436 3.554811 -0.088170
v 2.019668 5.065390 -2.932240
v 0.780445 7.193117 -0.853193
v 3.599215 4.825104 0.145132
v 1.327538 7.109891 0.212687
v 1.715816 4.586499 3.046648
v 0.675203 7.027248 1.217659
v -1.747130 4.588180 2.870792
v -0.524226 7.027830 1.156749
v -3.326677 4.828466 -0.206580
v -1.071318 7.111056 0.090868
v -1.443278 5.067071 -3.108096
v -0.418983 7.193699 -0.914103
v 1.233417 5.953776 -1.647477
v 2.156519 5.813352 0.150968
v 1.055843 5.673908 1.846641
v -0.967935 5.674891 1.743869
v -1.891037 5.815317 -0.054576
v -0.790361 5.954760 -1.750248
v 1.724500 5.076758 -2.473886
v 3.056645 4.874108 0.121482
v 1.468240 4.672875 2.568539
v -1.452310 4.674293 2.420227
v -2.784454 4.876943 -0.175141
v -1.196050 5.078176 -2.622197
v -2.380493 4.948337 -1.664246
v -2.193966 4.971967 -1.951604
v -1.934991 4.984560 -1.483803
v -1.927232 5.303462 -1.488356
v 2.396068 6.216602 -1.497674
v 1.039053 8.693012 -0.487118
v 2.562611 6.204404 1.304265
v 1.096737 8.688787 0.483364
v 0.225506 6.372798 2.850065
v 0.287256 8.747112 1.018769
v -2.278141 6.553392 1.593925
v -0.579909 8.809663 0.583691
v -2.444684 6.565590 -1.208014
v -0.637593 8.813888 -0.386791
v -0.107580 6.397195 -2.753814
v 0.171888 8.755562 -0.922195
v 1.498566 7.309876 -0.855185
v 1.595895 7.302747 0.782295
v 0.230070 7.401158 1.685675
v -1.233085 7.506699 0.951575
v -1.330414 7.513828 -0.685905
v 0.035411 7.415416 -1.589284
v 2.069507 6.316544 -1.278052
v 2.212389 6.306079 1.125806
v 0.207326 6.450549 2.451988
v -1.940619 6.605485 1.374313
v -2.083501 6.615950 -1.029545
v -0.078438 6.471480 -2.355727
v -0.290369 6.486449 2.202283
v -0.309600 6.411397 2.581589
v -0.499451 6.425092 2.486337
v -0.300766 6.742443 2.209846
v 1.967524 7.876052 -1.274855
v 0.761560 10.867684 -0.285031
v 2.123890 7.756712 1.010309
v 0.815719 10.826349 0.506460
v 0.221528 7.714731 2.287347
v 0.156816 10.811810 0.948776
v -1.837201 7.792091 1.279220
v -0.556247 10.838604 0.599601
v -1.993567 7.911432 -1.005944
v -0.610406 10.879939 -0.191890
v -0.091205 7.953412 -2.282981
v 0.048497 10.894479 -0.634206
v 1.193134 9.164161 -0.677058
v 1.284516 9.094418 0.658413
v 0.172758 9.069883 1.404726
v -1.030383 9.115093 0.815567
v -1.121764 9.184836 -0.519904
v -0.010006 9.209371 -1.266217
v 1.644007 7.977619 -1.051188
v 1.773670 7.878659 0.843736
v 0.196175 7.843847 1.902694
v -1.510983 7.907996 1.066726
v -1.640646 8.006957 -0.828199
v -0.063152 8.041768 -1.887156
vt 1.000000 0.750000
vt 0.833333 1.000000
vt 0.833333 0.750000
vt 0.666667 1.000000
vt 0.666667 0.750000
vt 0.500000 0.750000
vt 0.500000 1.000000
vt 0.333333 0.750000
vt 0.250000 0.490000
vt 0.042154 0.130000
vt 0.457846 0.130000
vt 0.333333 1.000000
vt 0.166667 0.750000
vt -0.000000 1.000000
vt -0.000000 0.750000
vt 0.500000 0.500000
vt 0.666667 0.500000
vt 0.666667 0.500000
vt 0.166667 0.500000
vt -0.000000 0.500000
vt 0.333333 0.500000
vt 0.833333 0.500000
vt 0.873119 0.557130
vt 0.885397 0.500000
vt 0.542154 0.130000
vt 0.542154 0.370000
vt 0.909291 0.398033
vt -0.000000 0.500000
vt 0.166667 0.500000
vt 0.500000 0.500000
vt 0.833333 0.500000
vt 0.333333 0.500000
vt 1.000000 0.500000
vt 1.000000 0.500000
vt 0.872268 0.500000
vt 0.866155 0.500000
vt 1.000000 1.000000
vt 0.833333 0.500000
vt 1.000000 0.500000
vt 0.833333 1.000000
vt 0.666667 0.500000
vt 0.666667 1.000000
vt 0.500000 0.500000
vt 0.333333 1.000000
vt 0.333333 0.500000
vt 0.500000 1.000000
vt 0.333333 1.000000
vt 0.166667 1.000000
vt 0.166667 0.500000
vt -0.000000 1.000000
vt -0.000000 0.500000
vt 0.750000 0.010000
vt 0.542154 0.130000
vt 0.750000 0.490000
vt 0.042154 0.130000
vt 0.250000 0.010000
vt 0.250000 0.490000
vt 0.833333 1.000000
vt 0.666667 1.000000
vt 0.166667 1.000000
vt 1.000000 1.000000
vt 0.500000 1.000000
vt -0.000000 1.000000
vt 1.000000 0.750000
vt 0.833333 1.000000
vt 0.833333 0.750000
vt 0.666667 0.750000
vt 0.666667 1.000000
vt 0.500000 0.750000
vt 0.500000 1.000000
vt 0.333333 0.750000
vt 0.250000 0.010000
vt 0.457846 0.130000
vt 0.250000 0.490000
vt 0.166667 1.000000
vt 0.166667 0.750000
vt -0.000000 1.000000
vt -0.000000 0.750000
vt 0.500000 0.500000
vt 0.666667 0.500000
vt 0.666667 0.500000
vt 0.166667 0.500000
vt -0.000000 0.500000
vt 0.333333 0.500000
vt 0.752065 0.500000
vt 0.758108 0.607393
vt 1.000000 0.500000
vt 0.833333 0.500000
vt 0.542154 0.130000
vt 0.542154 0.370000
vt 0.957846 0.263717
vt -0.000000 0.500000
vt 0.166667 0.500000
vt 0.333333 0.500000
vt 0.500000 0.500000
vt 0.769293 0.500000
vt 0.833333 0.500000
vt 1.000000 0.500000
vt 0.759526 0.500000
vt 1.000000 1.000000
vt 0.833333 0.750000
vt 1.000000 0.750000
vt 0.833333 1.000000
vt 0.666667 0.750000
vt 0.666667 1.000000
vt 0.500000 0.750000
vt 0.333333 1.000000
vt 0.333333 0.750000
vt 0.250000 0.010000
vt 0.457846 0.130000
vt 0.250000 0.490000
vt 0.166667 1.000000
vt 0.166667 0.750000
vt -0.000000 1.000000
vt -0.000000 0.750000
vt 0.500000 0.500000
vt 0.666667 0.500000
vt 0.666667 0.500000
vt 0.166667 0.500000
vt -0.000000 0.500000
vt 0.242381 0.592457
vt 0.233097 0.500000
vt 0.333333 0.500000
vt 0.833333 0.500000
vt 1.000000 0.500000
vt 0.750000 0.010000
vt 0.542154 0.130000
vt 0.542154 0.258350
vt -0.000000 0.500000
vt 0.166667 0.500000
vt 0.333333 0.500000
vt 0.500000 0.500000
vt 0.833333 0.500000
vt 0.249603 0.500000
vt 1.000000 0.500000
vt 0.244202 0.500000
vt 1.000000 1.000000
vt 0.833333 0.750000
vt 1.000000 0.750000
vt 0.833333 1.000000
vt 0.666667 0.750000
vt 0.500000 1.000000
vt 0.500000 0.750000
vt 0.333333 1.000000
vt 0.333333 0.750000
vt 0.042154 0.130000
vt 0.250000 0.010000
vt 0.457846 0.130000
vt 0.166667 1.000000
vt 0.166667 0.750000
vt -0.000000 0.750000
vt 0.631045 0.500000
vt 0.666667 0.500000
vt 0.666667 0.500000
vt -0.000000 0.500000
vt 0.166667 0.500000
vt 0.333333 0.500000
vt 0.500000 0.500000
vt 0.626388 0.580608
vt 0.618407 0.500000
vt 0.833333 0.500000
vt 1.000000 0.500000
vt 0.542154 0.130000
vt 0.542154 0.370000
vt 0.909687 0.102195
vt 0.166667 0.500000
vt 0.333333 0.500000
vt 0.500000 0.500000
vt 0.833333 0.500000
vt 1.000000 0.500000
vt 0.628049 0.500000
vt 1.000000 1.000000
vt 0.833333 0.750000
vt 1.000000 0.750000
vt 0.833333 1.000000
vt 0.666667 0.750000
vt 0.500000 1.000000
vt 0.500000 0.750000
vt 0.333333 1.000000
vt 0.333333 0.750000
vt 0.457846 0.130000
vt 0.042154 0.370000
vt 0.250000 0.010000
vt 0.166667 1.000000
vt 0.166667 0.750000
vt -0.000000 0.750000
vt 0.500000 0.500000
vt 0.333333 0.500000
vt 0.500000 0.500000
vt -0.000000 0.500000
vt 0.166667 0.500000
vt 0.333333 0.500000
vt 0.666667 0.500000
vt 0.833333 0.500000
vt 1.000000 0.500000
vt 0.750000 0.010000
vt 0.542154 0.130000
vt 0.542154 0.370000
vt 0.833333 0.500000
vt 0.166667 0.500000
vt 1.000000 0.500000
vt 0.666667 0.500000
vt 1.000000 1.000000
vt 0.457846 0.370000
vt 0.042154 0.370000
vt 0.250000 0.010000
vt 0.166667 1.000000
vt 0.750000 0.490000
vt 0.957846 0.370000
vt 0.957846 0.130000
vt 0.750000 0.010000
vt 0.542154 0.370000
vt 0.957846 0.370000
vt 0.957846 0.130000
vt 0.457846 0.130000
vt 0.457846 0.370000
vt 0.042154 0.370000
vt 1.000000 1.000000
vt 0.333333 1.000000
vt 0.457846 0.370000
vt 0.042154 0.370000
vt 0.042154 0.130000
vt 0.750000 0.490000
vt 0.957846 0.370000
vt 0.957846 0.130000
vt 0.750000 0.010000
vt 0.500000 1.000000
vt 0.457846 0.370000
vt 0.042154 0.370000
vt 0.042154 0.130000
vt 0.542154 0.370000
vt 0.750000 0.490000
vt 0.957846 0.370000
vt 0.957846 0.130000
vt 0.666667 1.000000
vt 0.457846 0.370000
vt 0.042154 0.370000
vt 0.250000 0.490000
vt -0.000000 1.000000
vt 0.750000 0.490000
vt 0.957846 0.370000
vt 0.957846 0.130000
vt 0.750000 0.010000
vt -0.000000 0.500000
vt 0.666667 1.000000
vt 0.457846 0.370000
vt 0.250000 0.490000
vt 0.042154 0.130000
vt -0.000000 1.000000
vt 0.750000 0.490000
vt 0.957846 0.130000
vt 0.957846 0.370000
vt -0.000000 0.500000
vn 0.9166 0.3066 0.2567
vn 0.2166 0.3752 0.9013
vn -0.6943 0.3687 0.6180
vn -0.9048 0.2946 -0.3075
vn 0.0195 0.9963 -0.0842
vn -0.2048 0.2268 -0.9522
vn 0.7061 0.2325 -0.6688
vn 0.1674 -0.9818 -0.0897
vn 0.6257 0.4847 -0.6112
vn -0.1743 0.4799 -0.8598
vn -0.7892 0.5393 -0.2938
vn -0.6044 0.6044 0.5191
vn 0.1957 0.6102 0.7677
vn 0.8106 0.5498 0.2017
vn -0.0195 -0.9963 0.0842
vn -0.2052 -0.9456 0.2526
vn 0.2233 -0.9621 0.1565
vn -0.0749 -0.9835 -0.1647
vn 0.0371 -0.9441 0.3277
vn -0.2612 -0.9653 0.0064
vn 0.0241 0.0122 0.9996
vn 0.7405 -0.1417 -0.6569
vn 0.4942 0.1516 -0.8560
vn 0.9884 0.1516 0.0000
vn 0.4942 0.1516 0.8560
vn -0.4942 0.1516 0.8560
vn -0.4990 0.0637 0.8643
vn -0.9884 0.1516 0.0000
vn -0.4942 0.1516 -0.8560
vn 0.0000 -1.0000 0.0000
vn 0.0000 1.0000 0.0000
vn 0.9980 0.0637 0.0000
vn -0.9980 0.0637 -0.0000
vn 0.4990 0.0637 -0.8643
vn 0.4990 0.0637 0.8643
vn -0.4990 0.0637 -0.8643
vn 0.4215 0.4817 -0.7683
vn 0.8484 0.5280 -0.0382
vn 0.4283 0.5768 0.6956
vn -0.4187 0.5792 0.6994
vn 0.0026 0.9979 -0.0648
vn -0.8456 0.5329 -0.0307
vn -0.4255 0.4841 -0.7646
vn -0.0740 -0.9956 -0.0581
vn -0.2856 0.7880 -0.5453
vn -0.5688 0.8209 -0.0507
vn -0.2811 0.8521 0.4414
vn 0.2899 0.8505 0.4389
vn 0.5730 0.8176 -0.0558
vn 0.2853 0.7864 -0.5479
vn -0.0026 -0.9979 0.0648
vn 0.0678 -0.9805 0.1846
vn 0.0678 -0.9960 -0.0588
vn -0.1432 -0.9876 0.0648
vn 0.1382 -0.9884 0.0636
vn -0.0718 -0.9801 0.1852
vn 0.1505 -0.0853 -0.9849
vn 0.3314 -0.1306 0.9344
vn 0.7784 0.5148 -0.3593
vn 0.7340 0.4449 0.5131
vn -0.0461 0.4103 0.9108
vn -0.7818 0.4456 0.4361
vn -0.0036 0.9968 0.0797
vn -0.7375 0.5155 -0.4363
vn 0.0426 0.5501 -0.8340
vn 0.0088 -0.9832 -0.1822
vn 0.0287 0.8303 -0.5566
vn -0.5248 0.8058 -0.2744
vn -0.5563 0.7562 0.3446
vn -0.0342 0.7311 0.6814
vn 0.5192 0.7557 0.3992
vn 0.5507 0.8052 -0.2198
vn 0.0036 -0.9968 -0.0797
vn -0.0017 -0.9997 0.0237
vn 0.0956 -0.9874 -0.1262
vn -0.0833 -0.9873 -0.1352
vn 0.0904 -0.9956 -0.0232
vn -0.0885 -0.9956 -0.0323
vn 0.3769 -0.0224 -0.9260
vn -0.8749 0.0282 0.4836
vn 0.9431 0.3279 -0.0546
vn 0.5330 0.3574 0.7669
vn -0.3817 0.4233 0.8216
vn -0.8864 0.4598 0.0547
vn 0.0719 0.9974 0.0001
vn -0.4762 0.4302 -0.7669
vn 0.4385 0.3643 -0.8216
vn 0.0260 -0.9809 -0.1928
vn 0.3685 0.6769 -0.6371
vn -0.3409 0.7281 -0.5947
vn -0.6590 0.7510 0.0424
vn -0.2676 0.7227 0.6372
vn 0.4418 0.6715 0.5948
vn 0.7599 0.6487 -0.0423
vn -0.0719 -0.9974 -0.0001
vn -0.1664 -0.9671 0.1926
vn 0.1443 -0.9894 -0.0129
vn -0.1886 -0.9654 -0.1800
vn 0.0481 -0.9825 0.1798
vn -0.2848 -0.9585 0.0128
vn -0.9975 -0.0388 -0.0583
vn 0.8037 0.0151 0.5948
vn 0.9651 0.2566 -0.0526
vn 0.5407 0.2176 0.8126
vn -0.4215 0.2260 0.8782
vn -0.9585 0.2737 0.0799
vn 0.0124 0.9986 0.0513
vn -0.5341 0.3131 -0.7853
vn 0.4281 0.3043 -0.8509
vn 0.2933 -0.9535 -0.0699
vn 0.3793 0.5673 -0.7310
vn -0.4647 0.5751 -0.6733
vn -0.8370 0.5404 0.0855
vn -0.3660 0.4986 0.7858
vn 0.4779 0.4914 0.7281
vn 0.8503 0.5254 -0.0307
vn -0.0124 -0.9986 -0.0513
vn -0.1821 -0.9357 -0.3021
vn 0.1585 -0.9660 0.2044
vn -0.3169 -0.9481 -0.0278
vn 0.1229 -0.9384 -0.3231
vn -0.1466 -0.9632 0.2254
vn -0.0749 -0.9835 -0.1648
usemtl None
s off
f 13/1/1 4/2/1 14/3/1
f 14/3/2 6/4/2 15/5/2
f 6/4/3 16/6/3 15/5/3
f 8/7/4 17/8/4 16/6/4
f 2/9/5 10/10/5 6/11/5
f 10/12/6 18/13/6 17/8/6
f 18/13/7 2/14/7 13/15/7
f 7/16/8 21/17/8 5/18/8
f 11/19/9 13/15/9 1/20/9
f 17/8/10 11/19/10 9/21/10
f 16/6/11 9/21/11 7/16/11
f 15/5/12 7/16/12 5/18/12
f 3/22/13 15/5/13 5/18/13
f 28/23/14 26/24/14 13/1/14
f 23/25/15 24/26/15 25/27/15
f 11/19/16 19/28/16 24/29/16
f 9/21/17 22/30/17 7/16/17
f 5/18/18 20/31/18 3/22/18
f 11/19/19 23/32/19 9/21/19
f 26/24/20 19/33/20 1/34/20
f 28/23/21 25/35/21 26/24/21
f 27/36/20 20/31/20 25/35/20
f 25/35/22 28/23/22 27/36/22
f 30/37/23 31/38/23 29/39/23
f 32/40/24 33/41/24 31/38/24
f 34/42/25 35/43/25 33/41/25
f 35/43/26 38/44/26 37/45/26
f 36/46/27 45/47/27 38/44/27
f 37/45/28 40/48/28 39/49/28
f 39/49/29 30/50/29 29/51/29
f 35/52/30 37/53/30 29/54/30
f 45/55/31 44/56/31 42/57/31
f 34/42/32 41/58/32 43/59/32
f 38/44/33 46/60/33 40/48/33
f 32/40/34 42/61/34 41/58/34
f 36/46/35 43/59/35 44/62/35
f 40/48/36 42/63/36 30/50/36
f 59/64/37 50/65/37 60/66/37
f 50/65/38 61/67/38 60/66/38
f 52/68/39 62/69/39 61/67/39
f 54/70/40 63/71/40 62/69/40
f 54/72/41 52/73/41 48/74/41
f 63/71/42 58/75/42 64/76/42
f 64/76/43 48/77/43 59/78/43
f 53/79/44 67/80/44 51/81/44
f 57/82/45 59/78/45 47/83/45
f 55/84/46 64/76/46 57/82/46
f 62/69/47 55/84/47 53/79/47
f 61/67/48 53/79/48 51/81/48
f 61/67/49 72/85/49 74/86/49
f 47/87/50 60/66/50 49/88/50
f 69/89/51 70/90/51 73/91/51
f 57/82/52 65/92/52 70/93/52
f 53/79/53 69/94/53 68/95/53
f 71/96/54 66/97/54 49/88/54
f 55/84/55 70/93/55 69/94/55
f 49/88/56 65/98/56 47/87/56
f 72/85/54 67/80/54 73/99/54
f 72/85/57 73/99/57 74/86/57
f 71/96/58 74/86/58 73/99/58
f 60/66/49 61/67/49 74/86/49
f 60/66/49 71/96/49 49/88/49
f 76/100/59 88/101/59 87/102/59
f 78/103/60 89/104/60 88/101/60
f 80/105/61 90/106/61 89/104/61
f 90/106/62 84/107/62 91/108/62
f 82/109/63 80/110/63 76/111/63
f 91/108/64 86/112/64 92/113/64
f 92/113/65 76/114/65 87/115/65
f 81/116/66 95/117/66 79/118/66
f 85/119/67 87/115/67 75/120/67
f 102/121/68 92/113/68 100/122/68
f 81/116/69 91/108/69 83/123/69
f 89/104/70 81/116/70 79/118/70
f 88/101/71 79/118/71 77/124/71
f 87/102/72 77/124/72 75/125/72
f 96/126/73 97/127/73 101/128/73
f 85/119/74 93/129/74 98/130/74
f 81/116/75 97/131/75 96/132/75
f 79/118/76 94/133/76 77/124/76
f 99/134/77 97/131/77 83/123/77
f 75/125/78 94/133/78 93/135/78
f 100/122/77 98/130/77 101/136/77
f 102/121/79 101/136/79 99/134/79
f 101/136/80 102/121/80 100/122/80
f 104/137/81 116/138/81 115/139/81
f 106/140/82 117/141/82 116/138/82
f 117/141/83 110/142/83 118/143/83
f 118/143/84 112/144/84 119/145/84
f 112/146/85 110/147/85 108/148/85
f 119/145/86 114/149/86 120/150/86
f 114/149/87 115/151/87 120/150/87
f 128/152/88 123/153/88 107/154/88
f 120/150/89 103/155/89 113/156/89
f 111/157/90 120/150/90 113/156/90
f 109/158/91 119/145/91 111/157/91
f 130/159/92 118/143/92 129/160/92
f 116/138/93 107/154/93 105/161/93
f 115/139/94 105/161/94 103/162/94
f 125/163/95 126/164/95 127/165/95
f 103/155/96 126/166/96 113/156/96
f 109/158/97 125/167/97 124/168/97
f 107/154/98 122/169/98 105/161/98
f 113/156/99 125/167/99 111/157/99
f 105/161/100 121/170/100 103/162/100
f 129/160/88 124/168/88 127/171/88
f 130/159/101 127/171/101 128/152/101
f 127/171/102 130/159/102 129/160/102
f 132/172/103 144/173/103 143/174/103
f 134/175/104 145/176/104 144/173/104
f 145/176/105 138/177/105 146/178/105
f 146/178/106 140/179/106 147/180/106
f 136/181/107 142/182/107 138/183/107
f 147/180/108 142/184/108 148/185/108
f 142/184/109 143/186/109 148/185/109
f 137/187/110 153/188/110 152/189/110
f 148/185/111 131/190/111 141/191/111
f 139/192/112 148/185/112 141/191/112
f 137/187/113 147/180/113 139/192/113
f 135/193/114 146/178/114 137/187/114
f 144/173/115 135/193/115 133/194/115
f 143/174/116 133/194/116 131/195/116
f 152/196/117 153/197/117 154/198/117
f 135/193/118 150/199/118 133/194/118
f 139/192/119 154/200/119 153/188/119
f 133/194/120 149/201/120 131/195/120
f 135/193/121 152/189/121 151/202/121
f 131/190/122 154/200/122 141/191/122
f 13/1/1 2/203/1 4/2/1
f 14/3/2 4/2/2 6/4/2
f 6/4/3 8/7/3 16/6/3
f 8/7/4 10/12/4 17/8/4
f 6/11/5 4/204/5 2/9/5
f 2/9/5 12/205/5 10/10/5
f 10/10/5 8/206/5 6/11/5
f 10/12/6 12/207/6 18/13/6
f 18/13/7 12/207/7 2/14/7
f 7/16/8 22/30/8 21/17/8
f 11/19/9 18/13/9 13/15/9
f 17/8/10 18/13/10 11/19/10
f 16/6/11 17/8/11 9/21/11
f 15/5/12 16/6/12 7/16/12
f 3/22/13 14/3/13 15/5/13
f 26/24/14 1/34/14 13/1/14
f 13/1/14 14/3/14 28/23/14
f 14/3/14 3/22/14 28/23/14
f 3/22/14 27/36/14 28/23/14
f 24/26/15 19/208/15 25/27/15
f 25/27/15 20/209/15 21/210/15
f 21/210/15 22/211/15 25/27/15
f 22/211/15 23/25/15 25/27/15
f 11/19/16 1/20/16 19/28/16
f 9/21/17 23/32/17 22/30/17
f 5/18/123 21/17/123 20/31/123
f 11/19/19 24/29/19 23/32/19
f 26/24/20 25/35/20 19/33/20
f 27/36/20 3/22/20 20/31/20
f 30/37/23 32/40/23 31/38/23
f 32/40/24 34/42/24 33/41/24
f 34/42/25 36/46/25 35/43/25
f 35/43/26 36/46/26 38/44/26
f 36/46/27 44/62/27 45/47/27
f 37/45/28 38/44/28 40/48/28
f 39/49/29 40/48/29 30/50/29
f 39/212/30 29/54/30 37/53/30
f 29/54/30 31/213/30 35/52/30
f 31/213/30 33/214/30 35/52/30
f 43/215/31 41/216/31 44/56/31
f 41/216/31 42/57/31 44/56/31
f 42/57/31 46/217/31 45/55/31
f 34/42/32 32/40/32 41/58/32
f 38/44/33 45/47/33 46/60/33
f 32/40/34 30/37/34 42/61/34
f 36/46/35 34/42/35 43/59/35
f 40/48/36 46/60/36 42/63/36
f 59/64/37 48/218/37 50/65/37
f 50/65/38 52/68/38 61/67/38
f 52/68/39 54/70/39 62/69/39
f 54/70/40 56/219/40 63/71/40
f 52/73/41 50/220/41 48/74/41
f 48/74/41 58/221/41 54/72/41
f 58/221/41 56/222/41 54/72/41
f 63/71/42 56/219/42 58/75/42
f 64/76/43 58/75/43 48/77/43
f 53/79/44 68/95/44 67/80/44
f 57/82/45 64/76/45 59/78/45
f 55/84/46 63/71/46 64/76/46
f 62/69/47 63/71/47 55/84/47
f 61/67/48 62/69/48 53/79/48
f 61/67/49 51/81/49 72/85/49
f 47/87/50 59/64/50 60/66/50
f 70/90/51 65/223/51 73/91/51
f 65/223/51 66/224/51 73/91/51
f 73/91/51 67/225/51 68/226/51
f 68/226/51 69/89/51 73/91/51
f 57/82/52 47/83/52 65/92/52
f 53/79/53 55/84/53 69/94/53
f 71/96/54 73/99/54 66/97/54
f 55/84/55 57/82/55 70/93/55
f 49/88/56 66/97/56 65/98/56
f 72/85/54 51/81/54 67/80/54
f 60/66/49 74/86/49 71/96/49
f 76/100/59 78/103/59 88/101/59
f 78/103/60 80/105/60 89/104/60
f 80/105/61 82/227/61 90/106/61
f 90/106/62 82/227/62 84/107/62
f 80/110/63 78/228/63 76/111/63
f 76/111/63 86/229/63 82/109/63
f 86/229/63 84/230/63 82/109/63
f 91/108/64 84/107/64 86/112/64
f 92/113/65 86/112/65 76/114/65
f 81/116/66 96/132/66 95/117/66
f 85/119/67 92/113/67 87/115/67
f 99/134/68 83/123/68 102/121/68
f 83/123/68 91/108/68 102/121/68
f 91/108/68 92/113/68 102/121/68
f 92/113/68 85/119/68 100/122/68
f 81/116/69 90/106/69 91/108/69
f 89/104/70 90/106/70 81/116/70
f 88/101/71 89/104/71 79/118/71
f 87/102/72 88/101/72 77/124/72
f 98/231/73 93/232/73 101/128/73
f 93/232/73 94/233/73 101/128/73
f 94/233/73 95/234/73 101/128/73
f 95/234/73 96/126/73 101/128/73
f 85/119/74 75/120/74 93/129/74
f 81/116/75 83/123/75 97/131/75
f 79/118/76 95/117/76 94/133/76
f 99/134/77 101/136/77 97/131/77
f 75/125/78 77/124/78 94/133/78
f 100/122/77 85/119/77 98/130/77
f 104/137/81 106/140/81 116/138/81
f 106/140/82 108/235/82 117/141/82
f 117/141/83 108/235/83 110/142/83
f 118/143/84 110/142/84 112/144/84
f 108/148/85 106/236/85 114/237/85
f 106/236/85 104/238/85 114/237/85
f 114/237/85 112/146/85 108/148/85
f 119/145/86 112/144/86 114/149/86
f 114/149/87 104/239/87 115/151/87
f 128/152/88 127/171/88 123/153/88
f 120/150/89 115/151/89 103/155/89
f 111/157/90 119/145/90 120/150/90
f 109/158/91 118/143/91 119/145/91
f 128/152/92 107/154/92 130/159/92
f 107/154/92 117/141/92 130/159/92
f 117/141/92 118/143/92 130/159/92
f 118/143/92 109/158/92 129/160/92
f 116/138/93 117/141/93 107/154/93
f 115/139/94 116/138/94 105/161/94
f 126/164/95 121/240/95 127/165/95
f 121/240/95 122/241/95 127/165/95
f 122/241/95 123/242/95 127/165/95
f 127/165/95 124/243/95 125/163/95
f 103/155/96 121/244/96 126/166/96
f 109/158/97 111/157/97 125/167/97
f 107/154/98 123/153/98 122/169/98
f 113/156/99 126/166/99 125/167/99
f 105/161/100 122/169/100 121/170/100
f 129/160/88 109/158/88 124/168/88
f 132/172/103 134/175/103 144/173/103
f 134/175/104 136/245/104 145/176/104
f 145/176/105 136/245/105 138/177/105
f 146/178/106 138/177/106 140/179/106
f 136/181/107 134/246/107 132/247/107
f 132/247/107 142/182/107 136/181/107
f 142/182/107 140/248/107 138/183/107
f 147/180/108 140/179/108 142/184/108
f 142/184/109 132/249/109 143/186/109
f 137/187/110 139/192/110 153/188/110
f 148/185/111 143/186/111 131/190/111
f 139/192/112 147/180/112 148/185/112
f 137/187/113 146/178/113 147/180/113
f 135/193/114 145/176/114 146/178/114
f 144/173/115 145/176/115 135/193/115
f 143/174/116 144/173/116 133/194/116
f 154/198/117 149/250/117 151/251/117
f 149/250/117 150/252/117 151/251/117
f 151/251/117 152/196/117 154/198/117
f 135/193/118 151/202/118 150/199/118
f 139/192/119 141/191/119 154/200/119
f 133/194/120 150/199/120 149/201/120
f 135/193/121 137/187/121 152/189/121
f 131/190/122 149/253/122 154/200/122
