# Blender v2.82 (sub 7) OBJ File: 'low-poly-trees-pack.blend'
# www.blender.org
o Icosphere.012_Icosphere.008
v -0.404064 -0.261856 -0.337528
v -0.615961 -0.171310 -0.493160
v -0.319262 0.283451 -0.157082
v -0.308624 -0.231271 -0.182605
v -0.645827 -0.005803 -0.268924
v -0.462798 -0.157136 -0.578054
v -0.646270 -0.197565 -0.264241
v -0.155489 0.267384 0.122676
v 0.025747 -0.324501 -0.007229
v -0.388695 0.108355 -0.021546
v 0.265345 0.267195 -0.344272
v 0.139986 0.069255 0.321107
v 0.311217 -0.137736 -0.787180
v 0.012544 -0.114046 -0.829321
v 0.521621 0.187972 0.217149
v 0.569763 0.194781 -0.445094
v -0.289865 -0.230752 -0.707739
v 0.105576 0.202327 -0.675707
v 0.203258 0.160473 -0.586808
v 0.499817 0.153639 0.110856
v 0.419801 0.256881 -0.172571
v 0.096959 0.361116 -0.387166
v 0.416017 0.238480 -0.487781
v 0.496826 -0.020267 0.210300
v 0.415747 -0.118206 -0.405670
v 0.306628 0.233454 0.123234
v -0.150652 0.354226 -0.155758
v -0.331111 -0.297655 0.118199
v 0.537633 0.108517 -0.236185
v -0.428419 -0.115774 0.000113
v 0.188673 -0.205780 -0.354252
v 0.362535 -0.163438 -0.605639
v 0.346034 -0.238170 0.178504
v -0.269127 0.314790 -0.324292
v 0.143372 -0.276491 -0.723063
v 0.117201 -0.200432 0.312700
v 0.454742 0.093700 0.291529
v 0.438865 0.046038 -0.634411
v -0.077565 0.197623 -0.543017
v -0.104691 -0.279763 -0.213996
v 0.265917 -0.247322 -0.177788
v -0.346981 0.094010 0.097873
v -0.460401 -0.268242 -0.579284
v -0.064006 -0.021559 0.309309
v 0.065315 0.389385 -0.060635
v -0.221400 -0.318555 -0.592235
vt 0.000000 0.000000
vt 0.000000 0.000000
vt 0.000000 0.000000
vt 0.000000 0.000000
vt 0.000000 0.000000
vt 0.000000 0.000000
vt 0.000000 0.000000
vt 0.000000 0.000000
vt 0.000000 0.000000
vt 0.000000 0.000000
vt 0.000000 0.000000
vt 0.000000 0.000000
vt 0.000000 0.000000
vt 0.000000 0.000000
vt 0.000000 0.000000
vt 0.000000 0.000000
vt 0.000000 0.000000
vt 0.000000 0.000000
vt 0.000000 0.000000
vt 0.000000 0.000000
vt 0.000000 0.000000
vt 0.000000 0.000000
vt 0.000000 0.000000
vt 0.000000 0.000000
vt 0.000000 0.000000
vt 0.000000 0.000000
vt 0.000000 0.000000
vt 0.000000 0.000000
vt 0.000000 0.000000
vt 0.000000 0.000000
vt 0.000000 0.000000
vt 0.000000 0.000000
vt 0.000000 0.000000
vt 0.000000 0.000000
vt 0.000000 0.000000
vt 0.000000 0.000000
vt 0.000000 0.000000
vt 0.000000 0.000000
vt 0.000000 0.000000
vt 0.000000 0.000000
vt 0.000000 0.000000
vt 0.000000 0.000000
vt 0.000000 0.000000
vt 0.000000 0.000000
vt 0.000000 0.000000
vt 0.000000 0.000000
vn -0.2017 -0.9767 0.0728
vn -0.7742 0.0172 0.6327
vn -0.1636 -0.9438 0.2871
vn -0.1923 -0.8815 0.4312
vn -0.6517 0.7565 -0.0536
vn -0.7234 0.1923 0.6632
vn -0.3879 0.7161 -0.5802
vn -0.7598 0.5587 0.3325
vn -0.6771 0.5992 0.4272
vn -0.3387 0.5496 -0.7637
vn -0.6011 -0.0041 -0.7992
vn -0.2952 -0.9440 -0.1474
vn -0.4847 -0.0008 -0.8747
vn -0.9913 -0.0009 -0.1314
vn -0.5646 0.5585 -0.6077
vn -0.4702 -0.8725 0.1326
vn -0.4900 0.5137 -0.7043
vn 0.2538 -0.9670 0.0209
vn -0.1182 0.9882 -0.0970
vn -0.0885 0.8019 0.5909
vn 0.8251 -0.5585 -0.0857
vn 0.8068 -0.1151 0.5795
vn 0.8821 -0.3627 -0.3007
vn 0.3788 -0.9193 0.1071
vn -0.4832 0.5124 -0.7099
vn 0.0822 -0.4983 -0.8631
vn 0.9194 -0.3575 -0.1638
vn 0.0275 0.6071 0.7942
vn -0.5190 0.4920 -0.6990
vn 0.5511 -0.7903 -0.2677
vn 0.8939 -0.4458 -0.0466
vn -0.5669 0.4556 -0.6863
vn 0.1106 -0.9547 -0.2763
vn -0.4489 0.3802 0.8086
vn 0.9800 -0.1113 -0.1651
vn 0.2730 -0.9029 -0.3321
vn -0.9182 0.1960 0.3443
vn 0.4013 -0.9074 0.1247
vn 0.0539 0.7456 0.6642
vn -0.2564 0.4659 0.8469
vn 0.9938 0.0417 0.1029
vn -0.7703 0.0019 0.6377
vn 0.1590 0.3930 -0.9057
vn -0.0187 0.7002 -0.7137
vn 0.1765 0.9236 -0.3402
vn 0.3674 0.5909 -0.7183
vn -0.1065 -0.8210 -0.5609
vn -0.1778 -0.9388 0.2949
vn 0.3155 0.8362 -0.4487
vn 0.8592 -0.4528 -0.2383
vn 0.3382 0.8730 -0.3514
vn 0.4289 -0.4139 0.8030
vn -0.3214 -0.3087 0.8952
vn -0.3745 0.8870 0.2702
vn 0.2881 0.9558 -0.0593
vn 0.1320 0.9895 -0.0593
vn 0.8031 0.4969 0.3287
vn -0.3868 0.9204 0.0565
vn -0.1152 -0.9839 0.1364
vn 0.1712 -0.9713 0.1652
vn 0.5543 -0.8258 -0.1034
vn 0.1103 -0.9556 -0.2733
vn -0.0911 -0.5955 -0.7982
vn 0.6748 0.5641 -0.4759
vn 0.1211 0.5834 -0.8031
vn -0.5938 0.0177 0.8044
vn 0.8786 -0.4774 0.0068
vn -0.2739 0.9195 0.2820
vn -0.1511 -0.9629 -0.2238
vn -0.8125 -0.5535 -0.1829
vn 0.1668 0.9500 0.2639
vn -0.0456 -0.0273 0.9986
vn 0.7841 0.6207 0.0047
vn 0.0519 -0.9360 0.3481
vn 0.2808 -0.9590 -0.0385
vn 0.2865 0.9367 -0.2015
vn 0.4026 0.8875 0.2243
vn -0.4036 0.8192 -0.4074
vn 0.4923 0.8700 -0.0276
vn 0.0501 -0.9359 0.3486
vn 0.0578 0.7976 0.6005
vn 0.5196 0.7251 -0.4520
vn -0.2395 -0.9691 -0.0586
vn 0.3846 0.8970 0.2182
vn -0.2033 -0.8338 -0.5133
vn 0.4096 -0.4115 0.8142
vn 0.0965 -0.0392 0.9946
vn -0.6403 0.6483 0.4121
s off
f 1/1/1 43/2/1 46/3/1
f 7/4/2 30/5/2 5/6/2
f 4/7/3 7/4/3 1/1/3
f 7/4/4 4/7/4 30/5/4
f 5/6/5 3/8/5 34/9/5
f 10/10/6 5/6/6 30/5/6
f 5/6/7 6/11/7 2/12/7
f 3/8/8 10/10/8 42/13/8
f 5/6/9 10/10/9 3/8/9
f 6/11/10 34/9/10 17/14/10
f 17/14/11 43/2/11 6/11/11
f 2/12/12 1/1/12 7/4/12
f 2/12/13 6/11/13 43/2/13
f 5/6/14 2/12/14 7/4/14
f 34/9/15 6/11/15 5/6/15
f 1/1/16 2/12/16 43/2/16
f 34/9/17 39/15/17 17/14/17
f 46/3/18 31/16/18 40/17/18
f 45/18/19 22/19/19 27/20/19
f 12/21/20 15/22/20 26/23/20
f 29/24/21 24/25/21 33/26/21
f 15/22/22 37/27/22 24/25/22
f 32/28/23 13/29/23 38/30/23
f 32/28/24 25/31/24 31/16/24
f 17/14/25 39/15/25 14/32/25
f 13/29/26 35/33/26 14/32/26
f 25/31/27 32/28/27 38/30/27
f 15/22/28 12/21/28 37/27/28
f 39/15/29 18/34/29 14/32/29
f 35/33/30 13/29/30 32/28/30
f 29/24/31 25/31/31 16/35/31
f 38/30/32 11/36/32 23/37/32
f 9/38/33 40/17/33 41/39/33
f 8/40/34 42/13/34 44/41/34
f 15/22/35 24/25/35 20/42/35
f 41/39/36 31/16/36 25/31/36
f 10/10/37 30/5/37 42/13/37
f 35/33/38 32/28/38 31/16/38
f 8/40/39 12/21/39 26/23/39
f 12/21/40 8/40/40 44/41/40
f 24/25/41 29/24/41 20/42/41
f 28/43/42 42/13/42 30/5/42
f 13/29/43 14/32/43 18/34/43
f 19/44/44 39/15/44 22/19/44
f 34/9/45 27/20/45 39/15/45
f 38/30/46 23/37/46 16/35/46
f 46/3/47 17/14/47 35/33/47
f 40/17/48 4/7/48 1/1/48
f 11/36/49 38/30/49 19/44/49
f 38/30/50 16/35/50 25/31/50
f 26/23/51 15/22/51 20/42/51
f 37/27/52 33/26/52 24/25/52
f 44/41/53 28/43/53 36/45/53
f 27/20/54 3/8/54 8/40/54
f 16/35/55 23/37/55 21/46/55
f 23/37/56 11/36/56 21/46/56
f 16/35/57 21/46/57 29/24/57
f 27/20/58 34/9/58 3/8/58
f 40/17/59 1/1/59 46/3/59
f 31/16/60 46/3/60 35/33/60
f 25/31/61 33/26/61 41/39/61
f 41/39/62 40/17/62 31/16/62
f 35/33/63 17/14/63 14/32/63
f 19/44/64 13/29/64 18/34/64
f 13/29/65 19/44/65 38/30/65
f 42/13/66 28/43/66 44/41/66
f 25/31/67 29/24/67 33/26/67
f 27/20/68 8/40/68 45/18/68
f 4/7/69 9/38/69 28/43/69
f 4/7/70 28/43/70 30/5/70
f 39/15/71 19/44/71 18/34/71
f 44/41/72 36/45/72 12/21/72
f 21/46/73 20/42/73 29/24/73
f 9/38/74 36/45/74 28/43/74
f 9/38/75 41/39/75 33/26/75
f 11/36/76 45/18/76 21/46/76
f 21/46/77 45/18/77 26/23/77
f 39/15/78 27/20/78 22/19/78
f 45/18/79 11/36/79 22/19/79
f 36/45/80 9/38/80 33/26/80
f 8/40/81 26/23/81 45/18/81
f 22/19/82 11/36/82 19/44/82
f 40/17/83 9/38/83 4/7/83
f 21/46/84 26/23/84 20/42/84
f 43/2/85 17/14/85 46/3/85
f 36/45/86 33/26/86 37/27/86
f 37/27/87 12/21/87 36/45/87
f 42/13/88 8/40/88 3/8/88
