# Blender v2.82 (sub 7) OBJ File: 'low-poly-trees-pack.blend'
# www.blender.org
o Icosphere.011
v 0.047126 -0.005749 0.060431
v 0.065762 0.015922 0.120531
v 0.056480 0.124761 0.013639
v 0.050802 0.001571 0.017037
v 0.103414 0.055533 0.081627
v 0.024207 0.019314 0.115076
v 0.104166 0.009638 0.080789
v 0.064767 0.120916 -0.063502
v 0.011405 -0.020742 -0.064288
v 0.089127 0.082855 -0.002566
v -0.082660 0.120870 -0.033516
v 0.036137 0.073497 -0.143730
v -0.154505 0.023957 0.045194
v -0.103022 0.029627 0.095800
v -0.052100 0.101909 -0.178023
v -0.155589 0.103539 -0.057426
v -0.027525 0.001695 0.115429
v -0.099070 0.105345 0.053000
v -0.105219 0.095328 0.021994
v -0.063027 0.093693 -0.154465
v -0.087954 0.118402 -0.088535
v -0.056357 0.143349 -0.001303
v -0.132075 0.113998 -0.027335
v -0.048302 0.052071 -0.173177
v -0.120340 0.028631 -0.043099
v -0.024087 0.112795 -0.129360
v 0.024220 0.141700 -0.010606
v 0.097928 -0.014317 -0.037653
v -0.119682 0.082893 -0.093058
v 0.099853 0.029213 -0.001082
v -0.069324 0.007672 -0.020686
v -0.138551 0.017806 0.002956
v -0.023807 -0.000080 -0.145603
v 0.023041 0.132261 0.038685
v -0.113081 -0.009252 0.056736
v 0.039325 0.008952 -0.138870
v -0.028646 0.079347 -0.182822
v -0.157335 0.067940 -0.002368
v -0.044945 0.104219 0.053522
v 0.007089 -0.010035 -0.005938
v -0.059082 -0.002271 -0.065637
v 0.098090 0.079421 -0.031483
v 0.023571 -0.007277 0.114972
v 0.073716 0.051762 -0.112435
v -0.003808 0.150114 -0.059640
v -0.024267 -0.019319 0.083459
vt 0.000000 0.000000
vt 0.000000 0.000000
vt 0.000000 0.000000
vt 0.000000 0.000000
vt 0.000000 0.000000
vt 0.000000 0.000000
vt 0.000000 0.000000
vt 0.000000 0.000000
vt 0.000000 0.000000
vt 0.000000 0.000000
vt 0.000000 0.000000
vt 0.000000 0.000000
vt 0.000000 0.000000
vt 0.000000 0.000000
vt 0.000000 0.000000
vt 0.000000 0.000000
vt 0.000000 0.000000
vt 0.000000 0.000000
vt 0.000000 0.000000
vt 0.000000 0.000000
vt 0.000000 0.000000
vt 0.000000 0.000000
vt 0.000000 0.000000
vt 0.000000 0.000000
vt 0.000000 0.000000
vt 0.000000 0.000000
vt 0.000000 0.000000
vt 0.000000 0.000000
vt 0.000000 0.000000
vt 0.000000 0.000000
vt 0.000000 0.000000
vt 0.000000 0.000000
vt 0.000000 0.000000
vt 0.000000 0.000000
vt 0.000000 0.000000
vt 0.000000 0.000000
vt 0.000000 0.000000
vt 0.000000 0.000000
vt 0.000000 0.000000
vt 0.000000 0.000000
vt 0.000000 0.000000
vt 0.000000 0.000000
vt 0.000000 0.000000
vt 0.000000 0.000000
vt 0.000000 0.000000
vt 0.000000 0.000000
vn 0.2054 -0.9767 0.0614
vn 0.9987 0.0172 -0.0485
vn 0.3023 -0.9438 -0.1336
vn 0.4109 -0.8815 -0.2324
vn 0.4922 0.7565 0.4306
vn 0.9759 0.1923 -0.1032
vn -0.0331 0.7161 0.6972
vn 0.8086 0.5587 0.1843
vn 0.7984 0.5992 0.0590
vn -0.1816 0.5496 0.8154
vn 0.0082 -0.0041 1.0000
vn 0.1497 -0.9440 0.2940
vn -0.1302 -0.0008 0.9915
vn 0.7190 -0.0009 0.6950
vn 0.0927 0.5585 0.8243
vn 0.4570 -0.8725 0.1729
vn -0.0247 0.5137 0.8576
vn -0.1917 -0.9670 -0.1677
vn 0.0373 0.9882 0.1482
vn 0.4224 0.8019 -0.4225
vn -0.7144 -0.5585 -0.4216
vn -0.3042 -0.1151 -0.9456
vn -0.8880 -0.3627 -0.2826
vn -0.2409 -0.9193 -0.3113
vn -0.0335 0.5124 0.8581
vn -0.5792 -0.4983 0.6451
vn -0.8367 -0.3575 -0.4149
vn 0.4500 0.6071 -0.6549
vn 0.0018 0.4920 0.8706
vn -0.6023 -0.7903 -0.1124
vn -0.7465 -0.4458 -0.4940
vn 0.0478 0.4556 0.8889
vn -0.2532 -0.9547 0.1565
vn 0.8417 0.3802 -0.3833
vn -0.8861 -0.1113 -0.4498
vn -0.4169 -0.9029 0.1047
vn 0.9430 0.1960 0.2690
vn -0.2485 -0.9074 -0.3388
vn 0.3515 0.7456 -0.5661
vn 0.7096 0.4659 -0.5286
vn -0.7380 0.0417 -0.6735
vn 0.9985 0.0019 -0.0548
vn -0.6662 0.3930 0.6338
vn -0.4093 0.7002 0.5850
vn -0.3442 0.9236 0.1686
vn -0.7224 0.5909 0.3592
vn -0.2478 -0.8210 0.5144
vn 0.3183 -0.9388 -0.1314
vn -0.5204 0.8362 0.1732
vn -0.8325 -0.4528 -0.3192
vn -0.4808 0.8730 0.0815
vn 0.1325 -0.4139 -0.9006
vn 0.7907 -0.3087 -0.5287
vn 0.4617 0.8870 0.0054
vn -0.2669 0.9558 -0.1236
vn -0.1415 0.9895 -0.0308
vn -0.4504 0.4969 -0.7418
vn 0.3446 0.9204 0.1845
vn 0.1737 -0.9839 -0.0413
vn -0.0395 -0.9713 -0.2346
vn -0.5072 -0.8258 -0.2464
vn -0.2512 -0.9556 0.1541
vn -0.4013 -0.5955 0.6960
vn -0.8255 0.5641 -0.0185
vn -0.5748 0.5834 0.5737
vn 0.9557 0.0177 -0.2938
vn -0.7025 -0.4774 -0.5278
vn 0.3879 0.9195 -0.0639
vn -0.0115 -0.9629 0.2698
vn 0.5446 -0.5535 0.6301
vn 0.0228 0.9500 -0.3114
vn 0.6303 -0.0273 -0.7758
vn -0.6276 0.6207 -0.4699
vn 0.1652 -0.9360 -0.3108
vn -0.2487 -0.9590 -0.1360
vn -0.3501 0.9367 -0.0083
vn -0.1904 0.8875 -0.4197
vn 0.0823 0.8192 0.5676
vn -0.4123 0.8700 -0.2705
vn 0.1670 -0.9359 -0.3101
vn 0.3105 0.7976 -0.5172
vn -0.6865 0.7251 0.0546
vn 0.1577 -0.9691 0.1895
vn -0.1795 0.8970 -0.4040
vn -0.1416 -0.8338 0.5336
vn 0.1547 -0.4115 -0.8982
vn 0.5137 -0.0392 -0.8571
vn 0.7598 0.6482 0.0493
s off
f 1/1/1 43/2/1 46/3/1
f 7/4/2 30/5/2 5/6/2
f 4/7/3 7/4/3 1/1/3
f 7/4/4 4/7/4 30/5/4
f 5/6/5 3/8/5 34/9/5
f 10/10/6 5/6/6 30/5/6
f 5/6/7 6/11/7 2/12/7
f 3/8/8 10/10/8 42/13/8
f 5/6/9 10/10/9 3/8/9
f 6/11/10 34/9/10 17/14/10
f 17/14/11 43/2/11 6/11/11
f 2/12/12 1/1/12 7/4/12
f 2/12/13 6/11/13 43/2/13
f 5/6/14 2/12/14 7/4/14
f 34/9/15 6/11/15 5/6/15
f 1/1/16 2/12/16 43/2/16
f 34/9/17 39/15/17 17/14/17
f 46/3/18 31/16/18 40/17/18
f 45/18/19 22/19/19 27/20/19
f 12/21/20 15/22/20 26/23/20
f 29/24/21 24/25/21 33/26/21
f 15/22/22 37/27/22 24/25/22
f 32/28/23 13/29/23 38/30/23
f 32/28/24 25/31/24 31/16/24
f 17/14/25 39/15/25 14/32/25
f 13/29/26 35/33/26 14/32/26
f 25/31/27 32/28/27 38/30/27
f 15/22/28 12/21/28 37/27/28
f 39/15/29 18/34/29 14/32/29
f 35/33/30 13/29/30 32/28/30
f 29/24/31 25/31/31 16/35/31
f 38/30/32 11/36/32 23/37/32
f 9/38/33 40/17/33 41/39/33
f 8/40/34 42/13/34 44/41/34
f 15/22/35 24/25/35 20/42/35
f 41/39/36 31/16/36 25/31/36
f 10/10/37 30/5/37 42/13/37
f 35/33/38 32/28/38 31/16/38
f 8/40/39 12/21/39 26/23/39
f 12/21/40 8/40/40 44/41/40
f 24/25/41 29/24/41 20/42/41
f 28/43/42 42/13/42 30/5/42
f 13/29/43 14/32/43 18/34/43
f 19/44/44 39/15/44 22/19/44
f 34/9/45 27/20/45 39/15/45
f 38/30/46 23/37/46 16/35/46
f 46/3/47 17/14/47 35/33/47
f 40/17/48 4/7/48 1/1/48
f 11/36/49 38/30/49 19/44/49
f 38/30/50 16/35/50 25/31/50
f 26/23/51 15/22/51 20/42/51
f 37/27/52 33/26/52 24/25/52
f 44/41/53 28/43/53 36/45/53
f 27/20/54 3/8/54 8/40/54
f 16/35/55 23/37/55 21/46/55
f 23/37/56 11/36/56 21/46/56
f 16/35/57 21/46/57 29/24/57
f 27/20/58 34/9/58 3/8/58
f 40/17/59 1/1/59 46/3/59
f 31/16/60 46/3/60 35/33/60
f 25/31/61 33/26/61 41/39/61
f 41/39/62 40/17/62 31/16/62
f 35/33/63 17/14/63 14/32/63
f 19/44/64 13/29/64 18/34/64
f 13/29/65 19/44/65 38/30/65
f 42/13/66 28/43/66 44/41/66
f 25/31/67 29/24/67 33/26/67
f 27/20/68 8/40/68 45/18/68
f 4/7/69 9/38/69 28/43/69
f 4/7/70 28/43/70 30/5/70
f 39/15/71 19/44/71 18/34/71
f 44/41/72 36/45/72 12/21/72
f 21/46/73 20/42/73 29/24/73
f 9/38/74 36/45/74 28/43/74
f 9/38/75 41/39/75 33/26/75
f 11/36/76 45/18/76 21/46/76
f 21/46/77 45/18/77 26/23/77
f 39/15/78 27/20/78 22/19/78
f 45/18/79 11/36/79 22/19/79
f 36/45/80 9/38/80 33/26/80
f 8/40/81 26/23/81 45/18/81
f 22/19/82 11/36/82 19/44/82
f 40/17/83 9/38/83 4/7/83
f 21/46/84 26/23/84 20/42/84
f 43/2/85 17/14/85 46/3/85
f 36/45/86 33/26/86 37/27/86
f 37/27/87 12/21/87 36/45/87
f 42/13/88 8/40/88 3/8/88
