# Blender v2.82 (sub 7) OBJ File: 'simple-grass.blend'
# www.blender.org
o Grass_1_Plane.001
v 0.084824 0.289189 1.118335
v 0.062791 0.295530 1.142360
v 0.046978 0.299932 1.160575
v 0.029596 0.303266 1.179824
v 0.024162 0.303346 1.185345
v 0.013918 0.303055 1.197576
v 0.014236 0.300620 1.200913
v 0.017353 0.302539 1.225442
v 0.017267 0.302530 1.226090
v 0.011869 0.291198 1.255142
v 0.001962 0.297587 1.268671
v -0.017483 0.296902 1.255402
v -0.026117 0.294466 1.261530
v -0.037036 0.291683 1.280533
v -0.041252 0.292858 1.322828
v -0.085827 -0.013454 1.326360
v -0.075384 -0.013454 1.315115
v -0.066523 -0.013454 1.305573
v -0.058612 -0.013454 1.297054
v -0.049754 -0.013454 1.287516
v -0.036168 -0.013454 1.272887
v -0.023802 -0.013454 1.259570
v -0.011777 -0.013454 1.246620
v 0.000565 -0.013454 1.233330
v 0.012274 -0.013454 1.220722
v 0.024739 -0.013454 1.207412
v 0.032810 -0.013454 1.202055
v 0.042082 -0.013454 1.196015
v 0.050599 -0.013454 1.186706
v 0.062978 -0.013454 1.171183
v 0.076218 -0.013454 1.154059
v 0.085605 -0.013454 1.142784
v 0.097635 -0.013454 1.129667
v -0.058469 0.287708 1.333783
v 0.106222 0.294650 1.172077
v 0.083305 0.300524 1.190084
v 0.070483 0.302604 1.197377
v 0.055596 0.303266 1.203191
v 0.048654 0.303346 1.206629
v 0.034971 0.303055 1.214833
v 0.028516 0.300620 1.213341
v 0.015628 0.302539 1.230992
v 0.015335 0.302530 1.231577
v 0.000117 0.291730 1.255483
v -0.009938 0.300321 1.253037
v -0.030025 0.299315 1.230951
v -0.040104 0.295378 1.228793
v -0.043819 0.288430 1.217291
v -0.094185 0.287050 1.259865
v -0.114902 -0.013454 1.292577
v -0.101353 -0.013454 1.285369
v -0.089857 -0.013454 1.279254
v -0.079593 -0.013454 1.273794
v -0.068101 -0.013454 1.267681
v -0.050475 -0.013454 1.258304
v -0.034431 -0.013454 1.249769
v -0.018829 -0.013454 1.241469
v -0.002817 -0.013454 1.232951
v 0.012374 -0.013454 1.224870
v 0.028589 -0.013454 1.216457
v 0.038664 -0.013454 1.219389
v 0.047211 -0.013454 1.228335
v 0.055548 -0.013454 1.226892
v 0.070313 -0.013454 1.215484
v 0.088164 -0.013454 1.198771
v 0.087545 -0.013454 1.206936
v 0.093434 -0.013454 1.210104
v -0.103593 0.284002 1.283958
v -0.009670 0.298167 1.117483
v -0.020251 0.301821 1.138127
v -0.024154 0.302604 1.148103
v -0.028611 0.303266 1.163451
v -0.030113 0.303346 1.171051
v -0.026745 0.300394 1.178056
v -0.006954 0.295260 1.174734
v 0.015784 0.302539 1.215511
v 0.016070 0.302530 1.216100
v 0.029556 0.291207 1.243498
v 0.036278 0.298529 1.247903
v 0.013847 0.293024 1.274941
v 0.008949 0.291717 1.296181
v 0.002450 0.290517 1.320831
v -0.001675 0.289308 1.337076
v 0.009915 -0.013454 1.322242
v 0.017924 -0.013454 1.299539
v 0.016006 -0.013454 1.292328
v 0.009772 -0.013454 1.292141
v 0.001769 -0.013454 1.293348
v -0.002821 -0.013454 1.284571
v 0.000183 -0.013454 1.266648
v 0.003104 -0.013454 1.249219
v 0.006103 -0.013454 1.231332
v 0.008947 -0.013454 1.214362
v 0.012016 -0.013454 1.196053
v 0.015173 -0.013454 1.177216
v 0.018842 -0.013454 1.155327
v 0.020862 -0.013454 1.143277
v 0.023082 -0.013454 1.130033
v 0.025395 -0.013454 1.116231
v 0.027551 -0.013454 1.103370
v 0.030372 -0.013454 1.086537
v -0.004952 0.284873 1.348775
v -0.086343 0.300429 1.137285
v -0.080847 0.299559 1.144226
v -0.072477 0.296825 1.143141
v -0.058155 0.292026 1.140545
v -0.052226 0.290312 1.141940
v -0.045534 0.289766 1.155793
v -0.029656 0.292672 1.174402
v 0.010024 0.302539 1.208735
v 0.010562 0.302530 1.209107
v 0.036116 0.290868 1.229897
v 0.048217 0.297139 1.241915
v 0.052713 0.295052 1.242988
v 0.062245 0.295118 1.250283
v 0.063657 0.293617 1.277251
v 0.060639 0.290745 1.309375
v 0.111846 -0.001341 1.290144
v 0.095910 -0.003531 1.285928
v 0.072441 -0.007422 1.291834
v 0.051268 -0.010941 1.297316
v 0.035220 -0.013316 1.296152
v 0.027743 -0.013454 1.278028
v 0.021555 -0.013454 1.260941
v 0.015538 -0.013454 1.244325
v 0.009363 -0.013454 1.227272
v 0.003504 -0.013454 1.211093
v -0.002817 -0.013454 1.193638
v -0.009320 -0.013454 1.175679
v -0.016877 -0.013454 1.154811
v -0.021037 -0.013454 1.143323
v -0.025609 -0.013454 1.130697
v -0.030374 -0.013454 1.117539
v -0.034814 -0.013454 1.105277
v -0.040626 -0.013454 1.089229
v 0.058846 0.285207 1.331784
vt 0.541375 0.000000
vt 0.573468 1.000000
vt 0.572653 1.000000
vt 0.982921 0.000000
vt 0.951708 1.000000
vt 0.924775 0.000000
vt 0.894579 1.000000
vt 0.880348 0.000000
vt 0.853482 1.000000
vt 0.832672 0.000000
vt 0.794860 1.000000
vt 0.786924 0.000000
vt 0.767930 1.000000
vt 0.745300 0.000000
vt 0.715648 1.000000
vt 0.669690 0.000000
vt 0.655445 1.000000
vt 0.604620 0.000000
vt 0.514442 1.000000
vt 0.482756 0.000000
vt 0.458992 1.000000
vt 0.420969 0.000000
vt 0.360765 0.000000
vt 0.335416 1.000000
vt 0.298853 0.000000
vt 0.276798 1.000000
vt 0.230837 0.000000
vt 0.213426 1.000000
vt 0.186493 0.000000
vt 0.154807 1.000000
vt 0.146885 0.000000
vt 0.102525 0.000000
vt 0.109453 0.989050
vt 0.050243 0.000000
vt 0.541375 0.000000
vt 0.573468 1.000000
vt 0.572653 1.000000
vt 0.982921 0.000000
vt 0.951708 1.000000
vt 0.924775 0.000000
vt 0.894579 1.000000
vt 0.880348 0.000000
vt 0.853482 1.000000
vt 0.832672 0.000000
vt 0.794860 1.000000
vt 0.786924 0.000000
vt 0.767930 1.000000
vt 0.745300 0.000000
vt 0.715648 1.000000
vt 0.669690 0.000000
vt 0.655445 1.000000
vt 0.604620 0.000000
vt 0.514442 1.000000
vt 0.482756 0.000000
vt 0.458992 1.000000
vt 0.420969 0.000000
vt 0.360765 0.000000
vt 0.335416 1.000000
vt 0.298853 0.000000
vt 0.276798 1.000000
vt 0.230837 0.000000
vt 0.213426 1.000000
vt 0.186493 0.000000
vt 0.154807 1.000000
vt 0.146885 0.000000
vt 0.102525 0.000000
vt 0.109453 0.989050
vt 0.050243 0.000000
vt 0.541375 0.000000
vt 0.573468 1.000000
vt 0.572653 1.000000
vt 0.982921 0.000000
vt 0.951708 1.000000
vt 0.924775 0.000000
vt 0.894579 1.000000
vt 0.880348 0.000000
vt 0.853482 1.000000
vt 0.832672 0.000000
vt 0.794860 1.000000
vt 0.786924 0.000000
vt 0.767930 1.000000
vt 0.745300 0.000000
vt 0.715648 1.000000
vt 0.669690 0.000000
vt 0.655445 1.000000
vt 0.604620 0.000000
vt 0.514442 1.000000
vt 0.482756 0.000000
vt 0.458992 1.000000
vt 0.420969 0.000000
vt 0.360765 0.000000
vt 0.335416 1.000000
vt 0.298853 0.000000
vt 0.276798 1.000000
vt 0.230837 0.000000
vt 0.213426 1.000000
vt 0.186493 0.000000
vt 0.154807 1.000000
vt 0.146885 0.000000
vt 0.102525 0.000000
vt 0.109453 0.989050
vt 0.050243 0.000000
vt 0.541375 0.000000
vt 0.573468 1.000000
vt 0.572653 1.000000
vt 0.982921 0.000000
vt 0.951708 1.000000
vt 0.924775 0.000000
vt 0.894579 1.000000
vt 0.880348 0.000000
vt 0.853482 1.000000
vt 0.832672 0.000000
vt 0.794860 1.000000
vt 0.786924 0.000000
vt 0.767930 1.000000
vt 0.745300 0.000000
vt 0.715648 1.000000
vt 0.669690 0.000000
vt 0.655445 1.000000
vt 0.604620 0.000000
vt 0.514442 1.000000
vt 0.482756 0.000000
vt 0.458992 1.000000
vt 0.420969 0.000000
vt 0.360765 0.000000
vt 0.335416 1.000000
vt 0.298853 0.000000
vt 0.276798 1.000000
vt 0.230837 0.000000
vt 0.213426 1.000000
vt 0.186493 0.000000
vt 0.154807 1.000000
vt 0.146885 0.000000
vt 0.102525 0.000000
vt 0.109453 0.989050
vt 0.050243 0.000000
vn 0.9913 -0.0179 0.1302
vn 0.7358 0.0564 0.6748
vn 0.7673 0.0575 0.6387
vn 0.7896 0.0610 0.6105
vn 0.7802 0.0653 0.6222
vn 0.7363 0.0643 0.6736
vn 0.5453 0.0444 0.8371
vn 0.5527 0.0357 0.8326
vn 0.7307 -0.0757 0.6785
vn 0.7304 -0.0803 0.6783
vn 0.7328 -0.0058 0.6805
vn 0.7328 0.0012 0.6805
vn 0.7327 -0.0150 0.6804
vn 0.7292 -0.0983 0.6772
vn 0.7302 -0.0830 0.6781
vn 0.8940 -0.0179 0.4476
vn -0.4699 0.1273 0.8735
vn -0.9970 -0.0175 -0.0757
vn 0.6828 0.0414 0.7294
vn 0.6104 0.0590 0.7899
vn 0.1702 0.0666 0.9832
vn -0.7231 0.0015 0.6908
vn -0.2794 0.0095 0.9601
vn 0.4685 -0.0695 0.8807
vn 0.4692 -0.0458 0.8819
vn 0.4691 0.0465 0.8819
vn 0.4685 0.0684 0.8808
vn 0.4669 0.1089 0.8776
vn 0.4687 0.0636 0.8811
vn 0.4696 0.0077 0.8828
vn 0.8996 -0.0179 -0.4363
vn 0.9803 0.1096 0.1643
vn 0.9778 0.1302 0.1639
vn 0.9770 0.1367 0.1638
vn 0.9762 0.1421 0.1636
vn 0.9761 0.1427 0.1636
vn 0.9779 0.1302 0.1639
vn 0.9837 0.0718 0.1649
vn 0.9829 -0.0822 0.1647
vn 0.9809 -0.1036 0.1644
vn 0.9851 -0.0484 0.1651
vn 0.8860 -0.0165 -0.4634
vn -0.1485 0.0894 -0.9849
vn 0.0295 0.1478 -0.9886
vn 0.9429 0.0174 0.3326
vn 0.5694 -0.0179 -0.8219
vn 0.9239 0.1858 -0.3346
vn 0.9253 0.1778 -0.3351
vn 0.9291 0.1538 -0.3364
vn 0.9345 0.1105 -0.3384
vn 0.9360 0.0946 -0.3390
vn 0.9365 0.0896 -0.3391
vn 0.9385 0.0609 -0.3399
vn 0.9373 -0.0795 -0.3394
vn 0.9354 -0.1010 -0.3387
vn 0.9341 -0.1140 -0.3383
vn 0.9162 -0.1363 -0.3769
vn 0.0823 -0.0688 -0.9942
vn -0.2576 0.0466 -0.9651
vn 0.2282 0.1812 -0.9566
vn 0.7297 -0.0219 0.6834
vn 0.4604 -0.0219 0.8874
vn 0.9860 -0.0219 0.1653
vn 0.9400 -0.0219 -0.3404
s off
f 25/1/1 8/2/1 9/3/1
f 33/4/2 1/5/2 32/6/2
f 32/6/3 2/7/3 31/8/3
f 31/8/4 3/9/4 30/10/4
f 30/10/5 4/11/5 29/12/5
f 29/12/6 5/13/6 28/14/6
f 28/14/7 6/15/7 27/16/7
f 27/16/8 7/17/8 26/18/8
f 25/1/9 10/19/9 24/20/9
f 24/20/10 11/21/10 23/22/10
f 22/23/11 12/24/11 21/25/11
f 21/25/12 13/26/12 20/27/12
f 20/27/13 14/28/13 19/29/13
f 19/29/14 15/30/14 18/31/14
f 17/32/15 34/33/15 16/34/15
f 59/35/16 42/36/16 43/37/16
f 67/38/17 35/39/17 66/40/17
f 66/40/18 36/41/18 65/42/18
f 65/42/19 37/43/19 64/44/19
f 64/44/20 38/45/20 63/46/20
f 63/46/21 39/47/21 62/48/21
f 62/48/22 40/49/22 61/50/22
f 61/50/23 41/51/23 60/52/23
f 59/35/24 44/53/24 58/54/24
f 58/54/25 45/55/25 57/56/25
f 56/57/26 46/58/26 55/59/26
f 55/59/27 47/60/27 54/61/27
f 54/61/28 48/62/28 53/63/28
f 53/63/29 49/64/29 52/65/29
f 51/66/30 68/67/30 50/68/30
f 93/69/31 76/70/31 77/71/31
f 101/72/32 69/73/32 100/74/32
f 100/74/33 70/75/33 99/76/33
f 99/76/34 71/77/34 98/78/34
f 98/78/35 72/79/35 97/80/35
f 97/80/36 73/81/36 96/82/36
f 96/82/37 74/83/37 95/84/37
f 95/84/38 75/85/38 94/86/38
f 93/69/39 78/87/39 92/88/39
f 92/88/40 79/89/40 91/90/40
f 90/91/41 80/92/41 89/93/41
f 89/93/42 81/94/42 88/95/42
f 88/95/43 82/96/43 87/97/43
f 87/97/44 83/98/44 86/99/44
f 85/100/45 102/101/45 84/102/45
f 127/103/46 110/104/46 111/105/46
f 135/106/47 103/107/47 134/108/47
f 134/108/48 104/109/48 133/110/48
f 133/110/49 105/111/49 132/112/49
f 132/112/50 106/113/50 131/114/50
f 131/114/51 107/115/51 130/116/51
f 130/116/52 108/117/52 129/118/52
f 129/118/53 109/119/53 128/120/53
f 127/103/54 112/121/54 126/122/54
f 126/122/55 113/123/55 125/124/55
f 124/125/56 114/126/56 123/127/56
f 123/127/57 115/128/57 122/129/57
f 122/129/58 116/130/58 121/131/58
f 121/131/59 117/132/59 120/133/59
f 119/134/60 136/135/60 118/136/60
f 25/1/61 26/18/61 8/2/61
f 59/35/62 60/52/62 42/36/62
f 93/69/63 94/86/63 76/70/63
f 127/103/64 128/120/64 110/104/64
o Grass_2_Plane.005
v 0.141272 0.302526 0.311987
v 0.083819 0.306122 0.333050
v 0.052711 0.310445 0.354150
v 0.031932 0.318169 0.371504
v 0.020618 0.325389 0.373666
v 0.003705 0.346143 0.384314
v 0.002275 0.349552 0.387293
v -0.002848 0.379024 0.410133
v -0.002925 0.378988 0.410783
v 0.004952 0.327795 0.445057
v 0.013230 0.324074 0.490042
v -0.013899 0.313455 0.455677
v -0.016082 0.306480 0.471956
v -0.021794 0.304966 0.501502
v -0.037675 0.302481 0.518412
v -0.085827 -0.004519 0.515191
v -0.075384 -0.004519 0.503946
v -0.066523 -0.004519 0.494404
v -0.058612 -0.004519 0.485885
v -0.049754 -0.004519 0.476347
v -0.036168 -0.004519 0.461717
v -0.023802 -0.004519 0.448400
v -0.011777 -0.004519 0.435451
v 0.000565 -0.004519 0.422161
v 0.012274 -0.004519 0.409553
v 0.024739 -0.004519 0.396242
v 0.032810 -0.004519 0.390886
v 0.042082 -0.004519 0.384846
v 0.050599 -0.004519 0.375537
v 0.062978 -0.004519 0.360014
v 0.076218 -0.004519 0.342890
v 0.085605 -0.004519 0.331614
v 0.097635 -0.004519 0.318497
v -0.058299 0.296656 0.522735
v 0.111354 0.304997 0.365155
v 0.119563 0.319436 0.408924
v 0.114243 0.323580 0.422425
v 0.084144 0.328962 0.417181
v 0.056904 0.335594 0.405909
v 0.020840 0.359246 0.400768
v 0.012499 0.363113 0.398889
v -0.003977 0.377033 0.415806
v -0.004136 0.376575 0.416418
v -0.002854 0.322280 0.450151
v -0.013213 0.325300 0.444008
v -0.031315 0.312628 0.419554
v -0.040103 0.304313 0.417625
v -0.043819 0.297365 0.406122
v -0.094185 0.295986 0.448696
v -0.114902 -0.004519 0.481407
v -0.101353 -0.004519 0.474200
v -0.089857 -0.004519 0.468085
v -0.079593 -0.004519 0.462624
v -0.068101 -0.004519 0.456511
v -0.050475 -0.004519 0.447135
v -0.034431 -0.004519 0.438599
v -0.018829 -0.004519 0.430300
v -0.002817 -0.004519 0.421782
v 0.012374 -0.004519 0.413701
v 0.028589 -0.004519 0.405288
v 0.038664 -0.004519 0.408219
v 0.047211 -0.004519 0.417166
v 0.055548 -0.004519 0.415723
v 0.070313 -0.004519 0.404314
v 0.088164 -0.004519 0.387602
v 0.087545 -0.004519 0.395766
v 0.093434 -0.004519 0.398934
v -0.103593 0.292937 0.472789
v -0.010537 0.307536 0.305652
v -0.044243 0.325980 0.304172
v -0.055047 0.334562 0.303658
v -0.069094 0.338579 0.313773
v -0.077890 0.335606 0.324292
v -0.078814 0.326786 0.339036
v -0.021172 0.309860 0.354714
v -0.002730 0.373385 0.400548
v -0.002635 0.374012 0.401097
v 0.017471 0.340555 0.429852
v 0.026901 0.338820 0.434812
v 0.033932 0.322549 0.516316
v 0.040243 0.328479 0.564530
v 0.020389 0.315404 0.555245
v 0.003365 0.302657 0.538517
v 0.009915 -0.004519 0.511073
v 0.017924 -0.004519 0.488369
v 0.016006 -0.004519 0.481158
v 0.009772 -0.004519 0.480972
v 0.001769 -0.004519 0.482179
v -0.002821 -0.004519 0.473402
v 0.000183 -0.004519 0.455479
v 0.003104 -0.004519 0.438050
v 0.006103 -0.004519 0.420163
v 0.008947 -0.004519 0.403193
v 0.012016 -0.004519 0.384884
v 0.015173 -0.004519 0.366046
v 0.018842 -0.004519 0.344158
v 0.020862 -0.004519 0.332108
v 0.023082 -0.004519 0.318864
v 0.025395 -0.004519 0.305062
v 0.027551 -0.004519 0.292200
v 0.030372 -0.004519 0.275367
v -0.004740 0.293887 0.537831
v -0.090471 0.313309 0.321072
v -0.090938 0.318818 0.319307
v -0.089415 0.324769 0.307733
v -0.085717 0.331979 0.289982
v -0.083863 0.334511 0.285368
v -0.084373 0.341473 0.288596
v -0.081091 0.325927 0.325921
v -0.005231 0.362487 0.394439
v -0.004951 0.363337 0.394759
v 0.022978 0.343734 0.416036
v 0.041819 0.327963 0.432345
v 0.049025 0.320487 0.444659
v 0.059366 0.311255 0.470015
v 0.058473 0.313371 0.523664
v 0.058994 0.303989 0.520496
v 0.111846 0.007594 0.478975
v 0.095910 0.005405 0.474758
v 0.072441 0.001514 0.480664
v 0.051268 -0.002005 0.486146
v 0.035220 -0.004380 0.484983
v 0.027743 -0.004519 0.466859
v 0.021555 -0.004519 0.449771
v 0.015538 -0.004519 0.433155
v 0.009363 -0.004519 0.416102
v 0.003504 -0.004519 0.399924
v -0.002817 -0.004519 0.382468
v -0.009320 -0.004519 0.364509
v -0.016877 -0.004519 0.343642
v -0.021037 -0.004519 0.332153
v -0.025609 -0.004519 0.319527
v -0.030374 -0.004519 0.306369
v -0.034814 -0.004519 0.294107
v -0.040626 -0.004519 0.278059
v 0.058839 0.294157 0.520691
vt 0.541375 0.000000
vt 0.573468 1.000000
vt 0.572653 1.000000
vt 0.982921 0.000000
vt 0.951708 1.000000
vt 0.924775 0.000000
vt 0.894579 1.000000
vt 0.880348 0.000000
vt 0.853482 1.000000
vt 0.832672 0.000000
vt 0.794860 1.000000
vt 0.786924 0.000000
vt 0.767930 1.000000
vt 0.745300 0.000000
vt 0.715648 1.000000
vt 0.669690 0.000000
vt 0.655445 1.000000
vt 0.604620 0.000000
vt 0.514442 1.000000
vt 0.482756 0.000000
vt 0.458992 1.000000
vt 0.420969 0.000000
vt 0.360765 0.000000
vt 0.335416 1.000000
vt 0.298853 0.000000
vt 0.276798 1.000000
vt 0.230837 0.000000
vt 0.213426 1.000000
vt 0.186493 0.000000
vt 0.154807 1.000000
vt 0.146885 0.000000
vt 0.102525 0.000000
vt 0.109453 0.989050
vt 0.050243 0.000000
vt 0.572653 1.000000
vt 0.604620 0.000000
vt 0.573468 1.000000
vt 0.982921 0.000000
vt 0.951708 1.000000
vt 0.924775 0.000000
vt 0.894579 1.000000
vt 0.880348 0.000000
vt 0.853482 1.000000
vt 0.832672 0.000000
vt 0.794860 1.000000
vt 0.786924 0.000000
vt 0.767930 1.000000
vt 0.745300 0.000000
vt 0.715648 1.000000
vt 0.669690 0.000000
vt 0.655445 1.000000
vt 0.541375 0.000000
vt 0.514442 1.000000
vt 0.482756 0.000000
vt 0.458992 1.000000
vt 0.420969 0.000000
vt 0.360765 0.000000
vt 0.335416 1.000000
vt 0.298853 0.000000
vt 0.276798 1.000000
vt 0.230837 0.000000
vt 0.213426 1.000000
vt 0.186493 0.000000
vt 0.154807 1.000000
vt 0.146885 0.000000
vt 0.102525 0.000000
vt 0.109453 0.989050
vt 0.050243 0.000000
vt 0.541375 0.000000
vt 0.573468 1.000000
vt 0.572653 1.000000
vt 0.982921 0.000000
vt 0.951708 1.000000
vt 0.924775 0.000000
vt 0.894579 1.000000
vt 0.880348 0.000000
vt 0.853482 1.000000
vt 0.832672 0.000000
vt 0.794860 1.000000
vt 0.786924 0.000000
vt 0.767930 1.000000
vt 0.745300 0.000000
vt 0.715648 1.000000
vt 0.669690 0.000000
vt 0.655445 1.000000
vt 0.604620 0.000000
vt 0.514442 1.000000
vt 0.482756 0.000000
vt 0.458992 1.000000
vt 0.420969 0.000000
vt 0.360765 0.000000
vt 0.335416 1.000000
vt 0.298853 0.000000
vt 0.276798 1.000000
vt 0.230837 0.000000
vt 0.213426 1.000000
vt 0.186493 0.000000
vt 0.154807 1.000000
vt 0.146885 0.000000
vt 0.102525 0.000000
vt 0.109453 0.989050
vt 0.050243 0.000000
vt 0.541375 0.000000
vt 0.573468 1.000000
vt 0.572653 1.000000
vt 0.982921 0.000000
vt 0.951708 1.000000
vt 0.924775 0.000000
vt 0.894579 1.000000
vt 0.880348 0.000000
vt 0.853482 1.000000
vt 0.832672 0.000000
vt 0.794860 1.000000
vt 0.786924 0.000000
vt 0.767930 1.000000
vt 0.745300 0.000000
vt 0.715648 1.000000
vt 0.669690 0.000000
vt 0.655445 1.000000
vt 0.604620 0.000000
vt 0.514442 1.000000
vt 0.482756 0.000000
vt 0.458992 1.000000
vt 0.420969 0.000000
vt 0.360765 0.000000
vt 0.335416 1.000000
vt 0.298853 0.000000
vt 0.276798 1.000000
vt 0.230837 0.000000
vt 0.213426 1.000000
vt 0.186493 0.000000
vt 0.154807 1.000000
vt 0.146885 0.000000
vt 0.102525 0.000000
vt 0.109453 0.989050
vt 0.050243 0.000000
vn 0.9920 0.0389 0.1201
vn 0.7340 -0.0900 0.6732
vn 0.7685 0.0015 0.6398
vn 0.7906 0.0371 0.6113
vn 0.7807 0.0529 0.6226
vn 0.7359 0.0707 0.6734
vn 0.5448 0.0609 0.8363
vn 0.5522 0.0561 0.8318
vn 0.7316 -0.0565 0.6794
vn 0.7225 -0.1665 0.6710
vn 0.7322 -0.0384 0.6800
vn 0.7310 -0.0696 0.6788
vn 0.7274 -0.1206 0.6755
vn 0.7274 -0.1212 0.6755
vn 0.7302 -0.0837 0.6781
vn 0.9507 0.0728 0.3014
vn -0.4702 0.1226 0.8740
vn -0.9920 0.1011 -0.0753
vn 0.6776 -0.1307 0.7238
vn 0.6105 -0.0558 0.7901
vn 0.1705 0.0277 0.9850
vn -0.7229 -0.0213 0.6906
vn -0.2794 0.0045 0.9602
vn 0.4683 -0.0764 0.8803
vn 0.4692 -0.0446 0.8820
vn 0.4691 0.0483 0.8818
vn 0.4685 0.0684 0.8808
vn 0.4669 0.1089 0.8776
vn 0.4687 0.0636 0.8811
vn 0.4696 0.0077 0.8828
vn 0.9790 0.0288 -0.2020
vn 0.9800 0.1125 0.1643
vn 0.9655 0.2039 0.1618
vn 0.9602 0.2285 0.1609
vn 0.9528 0.2583 0.1597
vn 0.9472 0.2787 0.1588
vn 0.9464 0.2814 0.1586
vn 0.9792 0.1191 0.1641
vn 0.9856 -0.0371 0.1652
vn 0.9840 -0.0666 0.1649
vn 0.9777 -0.1314 0.1639
vn 0.8861 0.0122 -0.4634
vn -0.1452 0.2283 -0.9627
vn 0.0293 0.1846 -0.9824
vn 0.9429 0.0165 0.3326
vn 0.7415 0.0076 -0.6709
vn 0.9231 0.1900 -0.3343
vn 0.9238 0.1864 -0.3345
vn 0.9270 0.1676 -0.3357
vn 0.9314 0.1368 -0.3373
vn 0.9327 0.1262 -0.3378
vn 0.9325 0.1282 -0.3377
vn 0.9278 0.1623 -0.3360
vn 0.9396 -0.0368 -0.3403
vn 0.9376 -0.0749 -0.3395
vn 0.9369 -0.0845 -0.3393
vn 0.9210 -0.0884 -0.3793
vn 0.0546 0.1167 -0.9917
vn -0.2667 0.1142 -0.9570
vn 0.2281 0.1815 -0.9566
vn 0.7296 0.0277 0.6833
vn 0.4605 0.0136 0.8876
vn 0.9857 0.0316 0.1652
vn 0.9401 0.0173 -0.3404
s off
f 161/137/65 144/138/65 145/139/65
f 169/140/66 137/141/66 168/142/66
f 168/142/67 138/143/67 167/144/67
f 167/144/68 139/145/68 166/146/68
f 166/146/69 140/147/69 165/148/69
f 165/148/70 141/149/70 164/150/70
f 164/150/71 142/151/71 163/152/71
f 163/152/72 143/153/72 162/154/72
f 161/137/73 146/155/73 160/156/73
f 160/156/74 147/157/74 159/158/74
f 158/159/75 148/160/75 157/161/75
f 157/161/76 149/162/76 156/163/76
f 156/163/77 150/164/77 155/165/77
f 155/165/78 151/166/78 154/167/78
f 153/168/79 170/169/79 152/170/79
f 179/171/80 196/172/80 178/173/80
f 203/174/81 171/175/81 202/176/81
f 202/176/82 172/177/82 201/178/82
f 201/178/83 173/179/83 200/180/83
f 200/180/84 174/181/84 199/182/84
f 199/182/85 175/183/85 198/184/85
f 198/184/86 176/185/86 197/186/86
f 197/186/87 177/187/87 196/172/87
f 195/188/88 180/189/88 194/190/88
f 194/190/89 181/191/89 193/192/89
f 192/193/90 182/194/90 191/195/90
f 191/195/91 183/196/91 190/197/91
f 190/197/92 184/198/92 189/199/92
f 189/199/93 185/200/93 188/201/93
f 187/202/94 204/203/94 186/204/94
f 229/205/95 212/206/95 213/207/95
f 237/208/96 205/209/96 236/210/96
f 236/210/97 206/211/97 235/212/97
f 235/212/98 207/213/98 234/214/98
f 234/214/99 208/215/99 233/216/99
f 233/216/100 209/217/100 232/218/100
f 232/218/101 210/219/101 231/220/101
f 231/220/102 211/221/102 230/222/102
f 229/205/103 214/223/103 228/224/103
f 228/224/104 215/225/104 227/226/104
f 226/227/105 216/228/105 225/229/105
f 225/229/106 217/230/106 224/231/106
f 224/231/107 218/232/107 223/233/107
f 223/233/108 219/234/108 222/235/108
f 221/236/109 238/237/109 220/238/109
f 263/239/110 246/240/110 247/241/110
f 271/242/111 239/243/111 270/244/111
f 270/244/112 240/245/112 269/246/112
f 269/246/113 241/247/113 268/248/113
f 268/248/114 242/249/114 267/250/114
f 267/250/115 243/251/115 266/252/115
f 266/252/116 244/253/116 265/254/116
f 265/254/117 245/255/117 264/256/117
f 263/239/118 248/257/118 262/258/118
f 262/258/119 249/259/119 261/260/119
f 260/261/120 250/262/120 259/263/120
f 259/263/121 251/264/121 258/265/121
f 258/265/122 252/266/122 257/267/122
f 257/267/123 253/268/123 256/269/123
f 255/270/124 272/271/124 254/272/124
f 161/137/125 162/154/125 144/138/125
f 179/171/126 195/188/126 196/172/126
f 229/205/127 230/222/127 212/206/127
f 263/239/128 264/256/128 246/240/128
